<?xml version="1.0" encoding="UTF-8" standalone="no"?>
<!DOCTYPE svg PUBLIC "-//W3C//DTD SVG 1.1//EN" "http://www.w3.org/Graphics/SVG/1.1/DTD/svg11.dtd">
<svg width="100%" height="100%" viewBox="0 0 886 886" version="1.1" xmlns="http://www.w3.org/2000/svg" xmlns:xlink="http://www.w3.org/1999/xlink" xml:space="preserve" style="fill-rule:evenodd;clip-rule:evenodd;stroke-linejoin:bevel;">
    <circle cx="442.692" cy="442.693" r="425.622" style="fill:rgb(190,22,34);"/>
    <circle cx="442.693" cy="442.693" r="386.929" style="fill:rgb(174,174,174);"/>
    <g>
        <circle cx="442.692" cy="442.693" r="250.266" style="fill:rgb(174,174,174);"/>
        <path d="M435.213,507.549L435.424,507.572L435.63,507.594L435.829,507.614L436.045,507.636L436.254,507.656L436.45,507.674L436.662,507.694L436.875,507.712L437.083,507.73L437.292,507.747L437.502,507.763L437.713,507.779L437.926,507.794L438.14,507.809L438.349,507.822L438.559,507.835L438.77,507.848L438.99,507.86L439.204,507.871L439.412,507.881L439.629,507.891L439.847,507.9L440.059,507.909L440.273,507.917L440.496,507.924L440.712,507.931L440.93,507.937L441.15,507.942L441.364,507.946L441.586,507.95L441.803,507.953L442.022,507.956L442.248,507.957L442.469,507.958L442.985,507.959L442.399,877.959L441.296,877.957L439.901,877.95L438.512,877.939L437.116,877.924L435.719,877.904L434.33,877.88L432.933,877.851L431.543,877.818L430.153,877.78L428.763,877.738L427.379,877.692L425.989,877.642L424.598,877.587L423.214,877.527L421.831,877.464L420.439,877.395L419.055,877.323L417.678,877.246L416.294,877.165L414.91,877.079L413.526,876.989L412.149,876.895L410.772,876.797L409.395,876.694L408.018,876.587L406.641,876.476L405.264,876.36L403.894,876.24L402.524,876.116L401.14,875.987L399.771,875.854L398.409,875.718L397.033,875.575L395.663,875.43L394.301,875.28L393.431,875.182L434.927,507.516L435.213,507.549ZM539.198,867.171L538.191,867.398L536.863,867.694L535.541,867.984L534.219,868.27L532.889,868.554L531.558,868.833L530.228,869.108L528.904,869.377L527.565,869.644L526.225,869.908L524.9,870.164L523.559,870.419L522.212,870.671L520.877,870.916L519.536,871.158L518.194,871.396L516.852,871.63L515.502,871.86L514.159,872.085L512.808,872.307L511.457,872.525L510.113,872.737L508.761,872.946L507.403,873.151L506.051,873.352L504.698,873.548L503.345,873.739L501.985,873.928L500.625,874.112L499.265,874.291L497.904,874.467L496.543,874.638L495.182,874.804L493.82,874.967L492.452,875.126L491.083,875.28L490.39,875.356L450.061,507.561L450.171,507.549L450.373,507.526L450.575,507.502L450.782,507.478L450.988,507.452L451.193,507.427L451.396,507.401L451.598,507.374L451.799,507.347L451.999,507.319L452.204,507.29L452.408,507.26L452.611,507.23L452.806,507.201L453.006,507.17L453.212,507.137L453.41,507.105L453.607,507.073L453.809,507.039L454.003,507.006L454.204,506.971L454.403,506.936L454.6,506.9L454.803,506.863L454.991,506.828L455.185,506.791L455.392,506.751L455.584,506.713L455.774,506.675L455.978,506.634L456.173,506.593L456.367,506.553L456.559,506.512L456.758,506.469L456.955,506.426L457.144,506.383L457.58,506.285L539.198,867.171ZM421.246,504.385L421.435,504.45L421.626,504.516L421.804,504.577L421.989,504.639L422.175,504.701L422.363,504.763L422.552,504.825L422.736,504.884L422.92,504.943L423.105,505.001L423.297,505.062L423.486,505.12L423.667,505.176L423.856,505.233L424.047,505.29L424.233,505.345L424.419,505.399L424.605,505.454L424.794,505.507L424.99,505.563L425.182,505.616L425.366,505.667L425.552,505.718L425.746,505.77L425.941,505.822L426.124,505.87L426.314,505.919L426.512,505.97L426.697,506.017L426.893,506.065L427.088,506.113L427.276,506.159L427.466,506.205L427.658,506.25L427.857,506.296L428.052,506.341L427.804,506.285L346.186,867.171L345.865,867.098L344.546,866.795L343.233,866.49L341.914,866.178L340.595,865.863L339.277,865.543L337.967,865.221L336.659,864.895L335.343,864.562L334.041,864.229L332.733,863.89L331.42,863.545L330.121,863.2L328.823,862.851L327.517,862.495L326.213,862.135L324.917,861.773L323.629,861.409L322.334,861.039L321.039,860.664L319.746,860.286L318.454,859.903L317.169,859.518L315.884,859.129L314.594,858.734L313.313,858.337L312.037,857.938L310.756,857.533L309.476,857.123L308.197,856.71L306.926,856.295L305.656,855.876L304.386,855.452L303.116,855.024L301.842,854.591L300.583,854.157L299.323,853.72L298.051,853.274L297.774,853.176L421.346,504.421L421.073,504.324L421.246,504.385ZM470.677,501.685L631.884,834.72L631.501,834.905L630.308,835.478L629.107,836.051L627.913,836.615L626.72,837.174L625.514,837.736L624.315,838.289L623.112,838.84L621.901,839.39L620.694,839.934L619.485,840.474L618.272,841.012L617.061,841.545L615.841,842.076L614.621,842.604L613.404,843.125L612.174,843.648L610.949,844.165L609.731,844.674L608.498,845.184L607.271,845.688L606.042,846.188L604.8,846.69L603.562,847.185L602.329,847.674L601.09,848.16L599.848,848.644L598.607,849.123L597.358,849.6L596.106,850.074L594.863,850.541L593.617,851.004L592.356,851.468L591.103,851.925L589.846,852.379L588.59,852.828L587.333,853.274L586.06,853.72L585.578,853.888L464.209,504.36L464.139,504.384L464.311,504.324L464.499,504.257L464.685,504.191L464.869,504.125L465.054,504.057L465.229,503.992L465.417,503.923L465.606,503.852L465.783,503.785L465.962,503.716L466.147,503.645L466.328,503.574L466.512,503.502L466.698,503.428L466.877,503.357L467.05,503.287L467.234,503.212L467.417,503.137L467.594,503.064L467.783,502.985L467.962,502.909L468.134,502.836L468.317,502.757L468.494,502.681L468.67,502.604L468.852,502.524L469.031,502.445L469.211,502.364L469.391,502.283L469.565,502.205L469.743,502.123L469.924,502.039L470.096,501.959L470.279,501.873L470.458,501.789L470.628,501.708L470.803,501.624L470.677,501.685ZM408.214,498.1L408.384,498.206L408.554,498.313L408.724,498.417L408.891,498.52L409.053,498.619L409.227,498.724L409.396,498.826L409.561,498.925L409.739,499.03L409.904,499.128L410.072,499.226L410.247,499.328L410.41,499.422L410.585,499.522L410.758,499.621L410.925,499.715L411.099,499.813L411.274,499.91L411.442,500.003L411.612,500.096L411.79,500.194L411.957,500.284L412.131,500.377L412.305,500.47L412.481,500.564L412.658,500.657L412.822,500.742L413,500.835L413.174,500.924L413.351,501.014L413.524,501.102L413.694,501.188L413.879,501.28L414.051,501.365L414.225,501.451L414.405,501.538L414.706,501.684L253.5,834.72L252.692,834.329L251.508,833.751L250.32,833.167L249.133,832.579L247.96,831.994L246.776,831.398L245.597,830.801L244.423,830.201L243.25,829.598L242.083,828.993L240.904,828.377L239.74,827.765L238.578,827.15L237.416,826.529L236.256,825.906L235.093,825.276L233.942,824.648L232.786,824.013L231.631,823.373L230.484,822.735L229.34,822.092L228.19,821.442L227.049,820.793L225.913,820.141L224.767,819.48L223.636,818.822L222.5,818.157L221.364,817.488L220.243,816.822L219.111,816.146L217.986,815.469L216.869,814.793L215.742,814.105L214.624,813.418L213.509,812.729L212.399,812.038L211.29,811.343L210.438,810.806L407.838,497.863L408.214,498.1ZM714.105,782.926L713.534,783.382L712.515,784.19L711.489,784.999L710.464,785.802L709.437,786.602L708.4,787.405L707.364,788.202L706.334,788.989L705.293,789.781L704.25,790.568L703.204,791.352L702.16,792.131L701.113,792.907L700.055,793.686L699.004,794.456L697.95,795.222L696.89,795.988L695.827,796.752L694.765,797.509L693.697,798.266L692.627,799.02L691.559,799.769L690.483,800.517L689.41,801.259L688.334,801.997L687.252,802.736L686.167,803.472L685.08,804.204L683.995,804.93L682.903,805.656L681.808,806.379L680.716,807.096L679.622,807.809L678.521,808.523L677.417,809.233L676.315,809.938L675.207,810.641L674.095,811.342L673.637,811.629L477.185,498.09L477.169,498.101L477.333,497.997L477.498,497.892L477.667,497.785L477.831,497.679L477.995,497.573L478.164,497.463L478.332,497.352L478.495,497.245L478.658,497.136L478.825,497.024L478.988,496.915L479.15,496.805L479.312,496.694L479.478,496.58L479.644,496.465L479.804,496.354L479.969,496.239L480.13,496.125L480.29,496.012L480.454,495.895L480.613,495.781L480.773,495.665L480.937,495.546L481.099,495.427L481.253,495.313L481.415,495.194L481.576,495.073L481.734,494.955L481.892,494.836L482.048,494.717L482.213,494.591L482.369,494.471L482.52,494.354L482.68,494.23L482.839,494.105L482.993,493.983L483.152,493.857L483.298,493.741L714.105,782.926ZM396.575,488.806L396.715,488.946L396.863,489.093L397.006,489.233L397.143,489.368L397.289,489.51L397.435,489.651L397.577,489.788L397.722,489.926L397.865,490.063L398.009,490.198L398.155,490.336L398.303,490.474L398.448,490.608L398.597,490.746L398.747,490.883L398.889,491.013L399.035,491.145L399.188,491.283L399.337,491.417L399.483,491.546L399.637,491.682L399.789,491.816L399.936,491.945L400.085,492.074L400.236,492.205L400.388,492.335L400.54,492.465L400.693,492.595L400.844,492.722L400.995,492.848L401.149,492.977L401.307,493.108L401.461,493.235L401.611,493.357L401.766,493.483L401.922,493.609L402.075,493.732L402.089,493.743L171.274,782.922L170.832,782.569L169.813,781.751L168.8,780.932L167.788,780.11L166.775,779.281L165.769,778.453L164.77,777.626L163.769,776.793L162.769,775.954L161.771,775.113L160.778,774.27L159.787,773.425L158.799,772.577L157.813,771.725L156.828,770.87L155.844,770.009L154.869,769.151L153.898,768.292L152.921,767.423L151.952,766.555L150.989,765.687L150.022,764.811L149.054,763.929L148.097,763.051L147.143,762.17L146.187,761.283L145.238,760.397L144.289,759.506L143.341,758.61L142.396,757.712L141.456,756.813L140.516,755.909L139.583,755.006L138.653,754.1L137.717,753.184L136.791,752.271L135.872,751.36L134.949,750.44L134.4,749.889L396.428,488.659L396.575,488.806ZM782.925,714.107L782.566,714.556L781.748,715.574L780.931,716.585L780.107,717.599L779.284,718.605L778.455,719.613L777.625,720.615L776.79,721.618L775.948,722.623L775.114,723.612L774.269,724.607L773.425,725.596L772.576,726.586L771.723,727.574L770.87,728.555L770.011,729.537L769.154,730.512L768.289,731.489L767.422,732.464L766.552,733.435L765.682,734.401L764.81,735.363L763.932,736.327L763.054,737.284L762.166,738.246L761.279,739.202L760.396,740.147L759.507,741.094L758.608,742.046L757.705,742.994L756.812,743.929L755.911,744.865L755.005,745.802L754.099,746.732L753.187,747.664L752.272,748.592L751.358,749.515L750.437,750.438L749.892,750.981L488.654,488.961L488.807,488.808L488.947,488.668L489.09,488.524L489.229,488.383L489.367,488.242L489.509,488.096L489.646,487.954L489.787,487.808L489.931,487.657L490.063,487.518L490.196,487.378L490.335,487.23L490.477,487.078L490.611,486.933L490.742,486.791L490.879,486.642L491.012,486.496L491.148,486.346L491.284,486.195L491.416,486.048L491.547,485.9L491.678,485.753L491.812,485.6L491.942,485.451L492.075,485.298L492.204,485.149L492.333,484.999L492.464,484.845L492.592,484.695L492.726,484.535L492.849,484.388L492.976,484.236L493.104,484.081L493.23,483.928L493.359,483.771L493.482,483.619L493.61,483.461L493.734,483.307L493.739,483.299L782.925,714.107ZM387.388,477.334L387.495,477.503L387.6,477.668L387.706,477.832L387.814,477.999L387.922,478.165L388.031,478.331L388.139,478.494L388.249,478.659L388.361,478.826L388.47,478.989L388.58,479.151L388.695,479.319L388.807,479.483L388.918,479.642L389.032,479.807L389.144,479.967L389.257,480.127L389.373,480.291L389.491,480.456L389.606,480.616L389.72,480.774L389.838,480.936L389.956,481.097L390.074,481.258L390.191,481.416L390.31,481.575L390.432,481.737L390.551,481.895L390.671,482.053L390.79,482.209L390.912,482.368L391.035,482.526L391.156,482.682L391.278,482.837L391.402,482.994L391.528,483.153L391.642,483.297L102.461,714.109L102.003,713.535L101.195,712.516L100.388,711.493L99.582,710.464L98.779,709.434L97.982,708.403L97.187,707.37L96.393,706.331L95.603,705.291L94.816,704.249L94.034,703.208L93.254,702.161L92.475,701.11L91.701,700.06L90.93,699.006L90.163,697.951L89.395,696.889L88.633,695.827L87.876,694.766L87.121,693.702L86.367,692.632L85.616,691.558L84.87,690.486L84.124,689.407L83.384,688.329L82.649,687.253L81.913,686.168L81.181,685.081L80.455,683.996L79.731,682.907L79.007,681.812L78.289,680.717L77.574,679.621L76.862,678.522L76.152,677.418L75.445,676.312L74.744,675.208L74.045,674.1L73.759,673.644L387.291,477.181L387.282,477.166L387.388,477.334ZM834.725,631.873L834.331,632.685L833.748,633.881L833.165,635.067L832.582,636.244L831.991,637.429L831.395,638.612L830.8,639.788L830.2,640.962L829.596,642.137L828.99,643.307L828.381,644.472L827.767,645.639L827.147,646.81L826.525,647.976L825.903,649.131L825.279,650.285L824.645,651.446L824.012,652.599L823.377,653.747L822.733,654.902L822.089,656.049L821.441,657.195L820.79,658.339L820.137,659.478L819.482,660.612L818.822,661.747L818.157,662.884L817.49,664.016L816.818,665.148L816.146,666.273L815.472,667.393L814.787,668.523L814.103,669.645L813.42,670.756L812.729,671.874L812.033,672.993L811.338,674.102L810.805,674.947L497.862,477.546L498.103,477.164L498.21,476.994L498.311,476.832L498.413,476.667L498.52,476.492L498.622,476.325L498.72,476.164L498.824,475.99L498.927,475.819L499.026,475.652L499.126,475.483L499.224,475.315L499.323,475.143L499.424,474.969L499.523,474.796L499.62,474.627L499.716,474.456L499.812,474.284L499.905,474.119L500.002,473.943L500.097,473.77L500.189,473.602L500.285,473.425L500.38,473.247L500.471,473.077L500.56,472.91L500.651,472.736L500.744,472.559L500.834,472.383L500.923,472.211L501.013,472.034L501.103,471.858L501.189,471.686L501.275,471.514L501.365,471.332L501.452,471.156L501.534,470.988L501.678,470.69L834.725,631.873ZM381.063,464.317L381.128,464.501L381.194,464.685L381.261,464.87L381.328,465.055L381.394,465.235L381.462,465.418L381.531,465.601L381.601,465.787L381.67,465.966L381.739,466.145L381.811,466.331L381.883,466.514L381.954,466.693L382.026,466.873L382.101,467.058L382.175,467.239L382.248,467.417L382.322,467.596L382.398,467.778L382.474,467.959L382.55,468.138L382.627,468.317L382.705,468.497L382.782,468.675L382.861,468.853L382.941,469.034L383.021,469.212L383.1,469.389L383.182,469.568L383.262,469.744L383.344,469.922L383.428,470.102L383.509,470.276L383.593,470.452L383.678,470.631L383.763,470.807L383.702,470.681L50.664,631.881L50.479,631.499L49.906,630.307L49.338,629.115L48.772,627.918L48.209,626.717L47.651,625.518L47.096,624.316L46.543,623.11L45.996,621.904L45.451,620.695L44.909,619.484L44.373,618.273L43.839,617.059L43.308,615.841L42.782,614.623L42.258,613.402L41.738,612.178L41.223,610.955L40.711,609.731L40.201,608.501L39.695,607.268L39.194,606.036L38.697,604.805L38.202,603.569L37.711,602.328L37.224,601.09L36.742,599.852L36.261,598.605L35.784,597.357L35.313,596.112L34.844,594.864L34.379,593.613L33.917,592.357L33.46,591.103L33.007,589.849L32.556,588.59L32.11,587.329L31.667,586.068L31.502,585.594L381.02,464.195L380.998,464.133L381.063,464.317ZM506.283,457.583L867.17,539.197L867.099,539.513L866.796,540.833L866.487,542.16L866.177,543.472L865.862,544.79L865.542,546.107L865.222,547.41L864.894,548.727L864.561,550.043L864.227,551.35L863.889,552.651L863.546,553.959L863.199,555.264L862.848,556.57L862.494,557.868L862.136,559.164L861.772,560.468L861.406,561.763L861.036,563.059L860.663,564.346L860.285,565.639L859.904,566.925L859.517,568.216L859.127,569.506L858.735,570.784L858.338,572.068L857.937,573.348L857.53,574.636L857.122,575.909L856.711,577.181L856.294,578.459L855.875,579.729L855.449,581.004L855.021,582.274L854.592,583.536L854.156,584.803L853.716,586.069L853.275,587.328L853.179,587.598L504.415,464.052L504.32,464.319L504.386,464.131L504.45,463.949L504.513,463.766L504.577,463.575L504.64,463.391L504.7,463.21L504.762,463.022L504.822,462.839L504.883,462.649L504.944,462.459L505,462.28L505.059,462.093L505.117,461.906L505.176,461.712L505.232,461.529L505.287,461.344L505.344,461.152L505.398,460.966L505.455,460.772L505.508,460.584L505.562,460.395L505.613,460.211L505.666,460.019L505.719,459.826L505.769,459.639L505.819,459.45L505.869,459.262L505.92,459.065L505.969,458.872L506.016,458.687L506.062,458.5L506.112,458.298L506.158,458.109L506.204,457.918L506.251,457.72L506.294,457.534L506.338,457.341L506.283,457.583ZM377.836,450.17L377.859,450.375L377.883,450.579L377.908,450.785L377.932,450.987L377.958,451.192L377.985,451.397L378.011,451.599L378.038,451.8L378.067,452.003L378.095,452.207L378.124,452.407L378.154,452.606L378.185,452.809L378.216,453.01L378.247,453.209L378.279,453.409L378.312,453.609L378.346,453.809L378.379,454.007L378.414,454.205L378.449,454.403L378.485,454.601L378.521,454.799L378.558,454.996L378.595,455.192L378.633,455.39L378.672,455.586L378.711,455.781L378.751,455.977L378.791,456.172L378.832,456.366L378.874,456.563L378.916,456.757L378.958,456.95L379.001,457.143L379.1,457.582L18.214,539.197L17.987,538.194L17.692,536.87L17.401,535.544L17.114,534.218L16.832,532.892L16.553,531.562L16.278,530.23L16.007,528.899L15.74,527.564L15.478,526.23L15.22,524.895L14.965,523.557L14.715,522.218L14.469,520.879L14.227,519.537L13.989,518.195L13.755,516.851L13.525,515.505L13.3,514.158L13.078,512.811L12.861,511.462L12.648,510.111L12.439,508.761L12.235,507.409L12.034,506.054L11.837,504.697L11.645,503.343L11.457,501.986L11.273,500.626L11.094,499.266L10.918,497.906L10.747,496.546L10.58,495.181L10.418,493.818L10.259,492.452L10.105,491.086L10.029,490.395L377.824,450.058L377.836,450.17ZM877.958,442.986L877.956,444.089L877.949,445.484L877.938,446.88L877.923,448.269L877.903,449.666L877.879,451.062L877.85,452.445L877.817,453.842L877.779,455.232L877.738,456.616L877.691,458.013L877.641,459.396L877.586,460.78L877.526,462.178L877.462,463.562L877.395,464.938L877.322,466.323L877.245,467.707L877.164,469.098L877.078,470.475L876.989,471.852L876.894,473.236L876.796,474.613L876.693,475.99L876.586,477.367L876.475,478.744L876.359,480.121L876.239,481.498L876.115,482.868L875.986,484.237L875.854,485.607L875.716,486.984L875.574,488.352L875.429,489.715L875.278,491.091L875.18,491.967L507.517,450.445L507.548,450.164L507.57,449.968L507.593,449.755L507.614,449.548L507.634,449.348L507.654,449.139L507.674,448.928L507.693,448.716L507.711,448.51L507.729,448.302L507.746,448.094L507.762,447.883L507.778,447.672L507.793,447.459L507.807,447.252L507.821,447.036L507.835,446.819L507.847,446.615L507.858,446.402L507.87,446.189L507.88,445.966L507.89,445.749L507.899,445.545L507.908,445.326L507.916,445.105L507.923,444.896L507.93,444.673L507.936,444.455L507.941,444.242L507.945,444.014L507.949,443.799L507.952,443.582L507.955,443.356L507.956,443.137L507.957,442.916L507.958,442.4L877.958,442.986ZM377.869,434.927L377.836,435.216L377.813,435.424L377.792,435.629L377.77,435.835L377.749,436.043L377.729,436.249L377.71,436.458L377.691,436.666L377.673,436.875L377.655,437.084L377.638,437.294L377.622,437.504L377.606,437.714L377.591,437.925L377.577,438.136L377.563,438.348L377.55,438.561L377.537,438.774L377.525,438.987L377.514,439.201L377.504,439.415L377.494,439.63L377.485,439.846L377.476,440.062L377.468,440.278L377.461,440.495L377.454,440.712L377.449,440.93L377.443,441.149L377.439,441.367L377.435,441.587L377.432,441.808L377.429,442.028L377.428,442.249L377.427,442.47L377.426,442.986L7.426,442.399L7.428,441.297L7.435,439.902L7.446,438.508L7.461,437.113L7.481,435.72L7.505,434.329L7.534,432.936L7.567,431.546L7.605,430.156L7.646,428.765L7.693,427.377L7.743,425.988L7.798,424.601L7.858,423.215L7.921,421.83L7.99,420.444L8.062,419.06L8.139,417.676L8.22,416.294L8.305,414.913L8.395,413.532L8.489,412.152L8.588,410.773L8.691,409.394L8.798,408.017L8.909,406.642L9.025,405.266L9.145,403.892L9.269,402.518L9.398,401.147L9.531,399.774L9.668,398.405L9.809,397.035L9.955,395.666L10.105,394.301L10.203,393.433L377.869,434.927ZM867.397,347.194L867.692,348.515L867.982,349.837L868.269,351.166L868.553,352.496L868.832,353.826L869.106,355.157L869.377,356.489L869.644,357.821L869.906,359.153L870.165,360.492L870.42,361.833L870.669,363.166L870.915,364.508L871.157,365.849L871.395,367.191L871.629,368.533L871.859,369.883L872.085,371.233L872.305,372.57L872.522,373.921L872.737,375.279L872.944,376.623L873.149,377.975L873.351,379.335L873.547,380.686L873.739,382.046L873.927,383.4L874.111,384.76L874.29,386.12L874.465,387.474L874.637,388.842L874.804,390.203L874.967,391.572L875.125,392.933L875.279,394.295L875.355,394.995L507.56,435.324L507.548,435.221L507.525,435.012L507.501,434.803L507.477,434.603L507.451,434.397L507.427,434.199L507.399,433.989L507.373,433.787L507.346,433.586L507.317,433.38L507.289,433.181L507.259,432.976L507.23,432.781L507.2,432.58L507.168,432.372L507.137,432.18L507.106,431.982L507.071,431.771L507.038,431.576L507.005,431.382L506.97,431.182L506.935,430.982L506.899,430.785L506.863,430.589L506.825,430.387L506.789,430.193L506.751,430L506.712,429.801L506.673,429.603L506.633,429.408L506.593,429.213L506.552,429.018L506.511,428.826L506.469,428.634L506.426,428.437L506.382,428.24L506.283,427.804L867.17,346.189L867.397,347.194ZM380.968,421.337L381.063,421.069L380.999,421.252L380.935,421.436L380.871,421.622L380.807,421.808L380.745,421.993L380.683,422.179L380.622,422.363L380.562,422.549L380.501,422.737L380.442,422.922L380.382,423.109L380.324,423.296L380.266,423.483L380.209,423.669L380.152,423.857L380.095,424.047L380.04,424.234L379.985,424.422L379.931,424.61L379.877,424.799L379.823,424.989L379.77,425.178L379.718,425.366L379.666,425.556L379.615,425.747L379.564,425.937L379.514,426.128L379.465,426.319L379.416,426.509L379.367,426.703L379.32,426.894L379.273,427.085L379.226,427.277L379.18,427.469L379.135,427.661L379.09,427.854L379.045,428.049L379.101,427.803L18.214,346.188L18.286,345.87L18.589,344.551L18.896,343.232L19.207,341.913L19.522,340.596L19.841,339.282L20.164,337.968L20.491,336.656L20.822,335.347L21.157,334.038L21.496,332.731L21.838,331.426L22.185,330.121L22.535,328.82L22.89,327.519L23.249,326.218L23.611,324.921L23.977,323.626L24.347,322.332L24.722,321.038L25.099,319.747L25.481,318.456L25.867,317.17L26.256,315.885L26.65,314.599L27.047,313.316L27.448,312.035L27.853,310.755L28.262,309.477L28.674,308.202L29.09,306.929L29.51,305.654L29.934,304.384L30.362,303.114L30.793,301.848L31.228,300.584L31.667,299.319L32.11,298.057L32.206,297.785L380.968,421.337ZM834.907,253.89L835.477,255.077L836.046,256.271L836.613,257.471L837.174,258.666L837.732,259.865L838.288,261.07L838.84,262.275L839.389,263.483L839.934,264.693L840.474,265.901L841.01,267.111L841.546,268.33L842.076,269.545L842.604,270.766L843.126,271.986L843.644,273.203L844.161,274.429L844.675,275.659L845.183,276.887L845.688,278.115L846.19,279.35L846.686,280.579L847.182,281.817L847.673,283.056L848.159,284.295L848.642,285.535L849.122,286.779L849.599,288.028L850.072,289.277L850.54,290.522L851.005,291.775L851.467,293.029L851.925,294.283L852.378,295.539L852.827,296.795L853.275,298.058L853.717,299.318L853.881,299.791L504.364,421.192L504.386,421.254L504.32,421.067L504.256,420.886L504.19,420.7L504.123,420.515L504.056,420.331L503.989,420.15L503.922,419.968L503.852,419.782L503.783,419.601L503.715,419.422L503.644,419.239L503.573,419.057L503.501,418.873L503.43,418.693L503.358,418.514L503.283,418.328L503.211,418.15L503.136,417.968L503.06,417.786L502.987,417.61L502.912,417.431L502.833,417.247L502.756,417.066L502.679,416.889L502.6,416.708L502.524,416.534L502.444,416.353L502.363,416.172L502.283,415.995L502.203,415.819L502.122,415.642L502.041,415.467L501.958,415.287L501.873,415.107L501.791,414.934L501.707,414.757L501.62,414.576L501.678,414.696L834.725,253.513L834.907,253.89ZM387.52,407.842L387.282,408.22L387.178,408.386L387.073,408.554L386.969,408.722L386.866,408.891L386.763,409.059L386.662,409.227L386.559,409.397L386.458,409.566L386.358,409.734L386.258,409.904L386.158,410.074L386.059,410.245L385.961,410.416L385.863,410.586L385.766,410.756L385.669,410.927L385.572,411.1L385.477,411.272L385.382,411.443L385.287,411.616L385.193,411.788L385.1,411.96L385.007,412.133L384.914,412.307L384.822,412.481L384.731,412.653L384.64,412.827L384.55,413.002L384.461,413.175L384.371,413.35L384.282,413.527L384.195,413.7L384.107,413.875L384.02,414.052L383.934,414.227L383.848,414.403L383.702,414.704L50.664,253.504L51.055,252.696L51.635,251.508L52.218,250.321L52.804,249.139L53.394,247.957L53.988,246.775L54.584,245.6L55.184,244.424L55.788,243.249L56.394,242.079L57.005,240.911L57.619,239.742L58.236,238.577L58.856,237.416L59.48,236.256L60.108,235.096L60.739,233.94L61.372,232.787L62.01,231.635L62.65,230.485L63.294,229.339L63.941,228.194L64.592,227.05L65.246,225.909L65.904,224.771L66.563,223.636L67.227,222.502L67.894,221.371L68.565,220.24L69.239,219.112L69.915,217.989L70.596,216.865L71.279,215.744L71.965,214.627L72.655,213.512L73.348,212.399L74.045,211.286L74.581,210.436L387.52,407.842ZM783.379,171.849L784.188,172.868L784.997,173.894L785.805,174.925L786.606,175.954L787.4,176.981L788.196,178.014L788.99,179.053L789.781,180.094L790.57,181.14L791.35,182.179L792.13,183.225L792.908,184.274L793.682,185.325L794.456,186.383L795.222,187.437L795.989,188.498L796.749,189.556L797.508,190.62L798.264,191.686L799.018,192.756L799.771,193.831L800.512,194.897L801.256,195.972L802.001,197.058L802.738,198.138L803.47,199.218L804.203,200.305L804.93,201.392L805.654,202.48L806.374,203.57L807.095,204.669L807.813,205.77L808.522,206.864L809.231,207.966L809.938,209.072L810.64,210.178L811.338,211.284L811.621,211.737L498.096,408.21L498.103,408.222L497.996,408.052L497.89,407.885L497.785,407.72L497.678,407.554L497.567,407.383L497.462,407.221L497.356,407.06L497.245,406.892L497.134,406.725L497.023,406.56L496.914,406.397L496.8,406.23L496.689,406.066L496.581,405.91L496.468,405.746L496.349,405.576L496.239,405.418L496.125,405.257L496.011,405.095L495.895,404.933L495.777,404.769L495.662,404.61L495.544,404.447L495.429,404.291L495.311,404.13L495.193,403.97L495.074,403.81L494.95,403.646L494.833,403.491L494.715,403.335L494.595,403.179L494.474,403.021L494.348,402.858L494.225,402.701L494.106,402.548L493.984,402.394L493.858,402.235L493.743,402.09L782.922,171.276L783.379,171.849ZM396.727,396.429L396.577,396.578L396.437,396.718L396.292,396.864L396.154,397.005L396.017,397.144L395.875,397.29L395.736,397.434L395.599,397.576L395.459,397.723L395.321,397.868L395.183,398.014L395.048,398.158L394.913,398.302L394.776,398.449L394.641,398.596L394.503,398.746L394.37,398.892L394.238,399.038L394.103,399.188L393.968,399.338L393.835,399.488L393.704,399.636L393.573,399.785L393.441,399.936L393.311,400.086L393.179,400.238L393.049,400.39L392.921,400.54L392.792,400.692L392.661,400.847L392.533,401L392.407,401.152L392.28,401.305L392.152,401.46L392.026,401.615L391.902,401.767L391.776,401.923L391.65,402.08L391.64,402.092L102.464,171.273L102.819,170.829L103.634,169.814L104.452,168.801L105.277,167.787L106.102,166.779L106.929,165.773L107.76,164.769L108.596,163.766L109.433,162.768L110.271,161.774L111.114,160.78L111.961,159.787L112.809,158.799L113.66,157.814L114.514,156.831L115.371,155.85L116.232,154.872L117.096,153.895L117.962,152.922L118.829,151.954L119.7,150.987L120.576,150.021L121.454,149.057L122.332,148.1L123.215,147.144L124.1,146.19L124.99,145.237L125.883,144.286L126.777,143.34L127.673,142.397L128.571,141.459L129.474,140.519L130.379,139.584L131.285,138.654L132.199,137.72L133.114,136.792L134.026,135.871L134.947,134.948L135.496,134.401L396.727,396.429ZM714.553,102.817L715.573,103.636L716.587,104.456L717.596,105.276L718.605,106.102L719.613,106.931L720.619,107.764L721.616,108.595L722.615,109.431L723.614,110.274L724.606,111.116L725.599,111.963L726.586,112.81L727.569,113.659L728.556,114.517L729.538,115.375L730.51,116.231L731.489,117.097L732.465,117.966L733.428,118.828L734.398,119.701L735.366,120.578L736.324,121.452L737.287,122.335L738.243,123.217L739.195,124.101L740.15,124.993L741.099,125.884L742.041,126.774L742.986,127.672L743.928,128.573L744.866,129.475L745.801,130.38L746.731,131.286L747.665,132.2L748.591,133.113L749.516,134.029L750.439,134.95L750.98,135.493L488.96,396.731L488.805,396.576L488.665,396.436L488.523,396.295L488.38,396.155L488.241,396.018L488.095,395.876L487.951,395.737L487.807,395.598L487.664,395.462L487.521,395.325L487.371,395.184L487.225,395.047L487.083,394.914L486.934,394.776L486.787,394.64L486.643,394.508L486.491,394.369L486.347,394.239L486.2,394.106L486.044,393.967L485.898,393.837L485.752,393.708L485.597,393.571L485.447,393.441L485.301,393.313L485.147,393.18L484.994,393.049L484.844,392.921L484.69,392.791L484.541,392.665L484.388,392.537L484.231,392.405L484.079,392.28L483.926,392.154L483.772,392.028L483.615,391.901L483.46,391.775L483.308,391.653L483.296,391.644L714.108,102.462L714.553,102.817ZM407.884,387.495L407.719,387.6L407.552,387.708L407.386,387.815L407.22,387.923L407.054,388.032L406.891,388.14L406.724,388.251L406.559,388.362L406.396,388.471L406.233,388.582L406.07,388.693L405.904,388.807L405.741,388.92L405.582,389.031L405.417,389.146L405.254,389.261L405.094,389.374L404.931,389.491L404.769,389.607L404.609,389.723L404.448,389.84L404.288,389.957L404.128,390.075L403.968,390.193L403.809,390.311L403.651,390.43L403.492,390.551L403.333,390.671L403.174,390.792L403.015,390.915L402.861,391.035L402.703,391.157L402.545,391.281L402.39,391.403L402.235,391.526L402.092,391.64L171.273,102.465L171.847,102.006L172.869,101.195L173.895,100.387L174.921,99.583L175.95,98.782L176.984,97.981L178.017,97.187L179.053,96.394L180.092,95.605L181.133,94.819L182.178,94.035L183.226,93.254L184.274,92.476L185.325,91.702L186.38,90.931L187.436,90.163L188.496,89.397L189.557,88.635L190.619,87.877L191.687,87.12L192.755,86.367L193.824,85.619L194.901,84.869L195.976,84.126L197.052,83.387L198.134,82.649L199.217,81.914L200.304,81.182L201.391,80.455L202.479,79.731L203.573,79.008L204.668,78.29L205.764,77.575L206.865,76.862L207.965,76.154L209.071,75.447L210.177,74.745L211.286,74.045L211.745,73.758L408.201,387.294L408.218,387.284L408.051,387.389L407.884,387.495ZM632.692,51.057L633.876,51.635L635.061,52.217L636.248,52.805L637.43,53.395L638.608,53.988L639.785,54.585L640.962,55.185L642.134,55.788L643.306,56.396L644.476,57.006L645.643,57.62L646.807,58.237L647.969,58.857L649.131,59.482L650.289,60.109L651.443,60.739L652.598,61.373L653.749,62.01L654.9,62.651L656.049,63.296L657.191,63.942L658.334,64.592L659.476,65.247L660.614,65.905L661.751,66.565L662.884,67.229L664.013,67.894L665.144,68.565L666.273,69.24L667.398,69.917L668.518,70.596L669.639,71.279L670.76,71.967L671.873,72.656L672.986,73.349L674.099,74.046L674.948,74.582L477.543,387.521L477.165,387.283L476.999,387.179L476.831,387.074L476.661,386.969L476.496,386.868L476.328,386.765L476.157,386.662L475.987,386.56L475.82,386.46L475.653,386.36L475.48,386.258L475.309,386.159L475.14,386.06L474.969,385.962L474.8,385.865L474.628,385.767L474.455,385.669L474.285,385.574L474.115,385.478L473.942,385.383L473.77,385.289L473.597,385.194L473.424,385.1L473.252,385.008L473.078,384.915L472.904,384.823L472.731,384.732L472.558,384.641L472.384,384.551L472.208,384.461L472.035,384.372L471.86,384.284L471.684,384.195L471.508,384.108L471.336,384.022L471.159,383.935L470.979,383.848L470.677,383.701L631.884,50.666L632.692,51.057ZM421.188,381.022L421.251,381L421.068,381.064L420.884,381.129L420.699,381.195L420.517,381.261L420.333,381.328L420.147,381.396L419.966,381.464L419.784,381.532L419.601,381.601L419.419,381.671L419.236,381.742L419.055,381.812L418.872,381.884L418.691,381.956L418.51,382.028L418.328,382.101L418.149,382.175L417.968,382.249L417.787,382.324L417.609,382.398L417.429,382.474L417.246,382.552L417.068,382.628L416.89,382.705L416.709,382.784L416.53,382.862L416.351,382.942L416.174,383.021L415.997,383.101L415.817,383.183L415.639,383.264L415.463,383.345L415.285,383.428L415.108,383.511L414.93,383.595L414.753,383.68L414.579,383.763L414.707,383.701L253.501,50.666L253.884,50.48L255.079,49.906L256.273,49.338L257.468,48.772L258.667,48.21L259.867,47.652L261.07,47.096L262.275,46.544L263.479,45.998L264.689,45.452L265.901,44.91L267.113,44.373L268.328,43.839L269.543,43.31L270.762,42.783L271.984,42.259L273.204,41.74L274.428,41.224L275.657,40.711L276.884,40.202L278.114,39.697L279.348,39.195L280.581,38.697L281.818,38.203L283.055,37.712L284.295,37.225L285.537,36.742L286.78,36.262L288.026,35.786L289.273,35.314L290.522,34.845L291.775,34.379L293.025,33.919L294.279,33.462L295.538,33.007L296.795,32.557L298.056,32.111L299.318,31.668L299.794,31.503L421.188,381.022ZM539.514,18.287L540.835,18.59L542.154,18.897L543.473,19.208L544.788,19.523L546.103,19.842L547.416,20.165L548.728,20.492L550.038,20.823L551.346,21.157L552.654,21.497L553.961,21.84L555.263,22.186L556.565,22.536L557.867,22.891L559.166,23.25L560.463,23.612L561.761,23.978L563.053,24.348L564.345,24.722L565.638,25.1L566.927,25.482L568.217,25.868L569.502,26.257L570.785,26.65L572.07,27.048L573.35,27.449L574.63,27.854L575.908,28.263L577.184,28.675L578.458,29.091L579.728,29.51L581.001,29.935L582.27,30.363L583.538,30.794L584.804,31.23L586.065,31.667L587.328,32.111L587.6,32.207L464.048,380.969L464.316,381.064L464.134,381L463.946,380.935L463.762,380.871L463.578,380.809L463.393,380.746L463.209,380.685L463.021,380.623L462.835,380.562L462.648,380.502L462.463,380.442L462.276,380.383L462.089,380.325L461.903,380.267L461.714,380.209L461.526,380.153L461.34,380.097L461.151,380.041L460.965,379.986L460.775,379.932L460.585,379.877L460.397,379.824L460.207,379.771L460.018,379.719L459.829,379.667L459.638,379.616L459.446,379.565L459.257,379.515L459.067,379.466L458.875,379.417L458.684,379.369L458.492,379.321L458.3,379.274L458.109,379.227L457.915,379.181L457.723,379.135L457.53,379.091L457.337,379.046L457.583,379.102L539.194,18.215L539.514,18.287ZM435.327,377.825L435.217,377.837L435.011,377.86L434.805,377.884L434.602,377.908L434.396,377.934L434.193,377.959L433.99,377.985L433.786,378.012L433.584,378.04L433.382,378.068L433.18,378.096L432.978,378.125L432.777,378.155L432.575,378.186L432.376,378.217L432.175,378.248L431.976,378.28L431.777,378.313L431.576,378.347L431.377,378.381L431.179,378.415L430.981,378.45L430.784,378.486L430.588,378.522L430.389,378.559L430.192,378.596L429.997,378.634L429.8,378.673L429.603,378.712L429.408,378.752L429.213,378.792L429.017,378.833L428.823,378.875L428.63,378.916L428.436,378.959L428.24,379.003L427.801,379.102L346.19,18.215L347.193,17.988L348.514,17.693L349.839,17.402L351.167,17.115L352.495,16.832L353.824,16.553L355.155,16.279L356.487,16.008L357.819,15.742L359.153,15.479L360.491,15.22L361.828,14.966L363.165,14.716L364.507,14.47L365.848,14.228L367.191,13.99L368.536,13.756L369.88,13.526L371.225,13.301L372.574,13.079L373.923,12.862L375.273,12.649L376.626,12.44L377.977,12.235L379.331,12.035L380.686,11.838L382.042,11.646L383.4,11.458L384.759,11.274L386.118,11.095L387.478,10.919L388.841,10.748L390.202,10.581L391.568,10.419L392.932,10.26L394.298,10.106L394.991,10.03L435.327,377.825ZM444.088,7.429L445.483,7.436L446.877,7.447L448.27,7.462L449.665,7.482L451.058,7.506L452.448,7.535L453.839,7.568L455.229,7.606L456.62,7.647L458.008,7.694L459.395,7.744L460.784,7.799L462.171,7.859L463.557,7.923L464.941,7.991L466.325,8.063L467.707,8.14L469.09,8.221L470.474,8.307L471.854,8.396L473.233,8.49L474.612,8.589L475.989,8.692L477.368,8.799L478.745,8.91L480.118,9.026L481.492,9.146L482.867,9.27L484.24,9.399L485.61,9.532L486.981,9.669L488.35,9.81L489.717,9.956L491.086,10.106L491.956,10.204L450.453,377.869L450.167,377.837L449.963,377.815L449.756,377.793L449.549,377.771L449.343,377.751L449.134,377.73L448.927,377.711L448.72,377.692L448.511,377.674L448.3,377.656L448.091,377.639L447.882,377.623L447.671,377.607L447.46,377.592L447.247,377.578L447.035,377.564L446.825,377.551L446.612,377.538L446.398,377.526L446.184,377.515L445.969,377.505L445.754,377.495L445.539,377.486L445.325,377.477L445.107,377.469L444.89,377.462L444.673,377.455L444.455,377.45L444.237,377.444L444.016,377.44L443.798,377.436L443.579,377.433L443.357,377.43L443.136,377.429L442.915,377.428L442.399,377.427L442.985,7.427L444.088,7.429Z" style="fill:rgb(153,153,153);"/>
    </g>
    <circle cx="442.693" cy="442.693" r="390.566" style="fill:none;stroke:rgb(153,153,153);stroke-width:20px;"/>
    <path d="M442.693,26C672.825,26 859.385,212.56 859.385,442.693C859.385,672.827 672.824,859.385 442.693,859.385C212.56,859.385 26,672.827 26,442.693C26,212.56 212.56,26 442.693,26M442.693,0C382.941,0 324.963,11.708 270.369,34.8C217.65,57.098 170.309,89.014 129.662,129.662C89.014,170.31 57.098,217.65 34.8,270.369C11.708,324.963 0,382.941 0,442.693C0,502.445 11.708,560.423 34.8,615.017C57.098,667.736 89.014,715.077 129.662,755.724C170.309,796.371 217.65,828.287 270.369,850.585C324.963,873.677 382.941,885.385 442.693,885.385C502.445,885.385 560.422,873.677 615.016,850.585C667.735,828.287 715.076,796.371 755.723,755.724C796.37,715.077 828.287,667.736 850.585,615.017C873.677,560.423 885.385,502.445 885.385,442.693C885.385,382.941 873.677,324.963 850.585,270.369C828.287,217.65 796.37,170.31 755.723,129.662C715.076,89.014 667.735,57.098 615.017,34.8C560.423,11.708 502.444,0 442.693,0Z" style="fill:rgb(238,238,238);fill-rule:nonzero;"/>
    <path d="M442.693,50.167C495.692,50.167 547.095,60.542 595.475,81.005C642.214,100.774 684.195,129.079 720.249,165.134C756.305,201.19 784.609,243.17 804.379,289.909C824.842,338.288 835.217,389.692 835.217,442.692C835.217,495.692 824.842,547.095 804.379,595.475C784.609,642.214 756.305,684.194 720.249,720.249C684.194,756.304 642.214,784.609 595.475,804.379C547.095,824.841 495.692,835.217 442.693,835.217C389.693,835.217 338.29,824.841 289.91,804.379C243.17,784.609 201.19,756.304 165.135,720.249C129.079,684.193 100.774,642.213 81.005,595.474C60.542,547.095 50.167,495.691 50.167,442.692C50.167,389.693 60.542,338.29 81.005,289.91C100.774,243.171 129.08,201.19 165.135,165.135C201.19,129.079 243.171,100.774 289.91,81.005C338.29,60.542 389.694,50.167 442.693,50.167M442.693,30.167C214.861,30.167 30.166,214.861 30.166,442.693C30.166,670.525 214.861,855.218 442.693,855.218C670.524,855.218 855.217,670.525 855.217,442.693C855.217,214.861 670.524,30.167 442.693,30.167Z" style="fill:rgb(238,238,238);fill-rule:nonzero;"/>
    <path d="M500.145,385.243L605.192,442.691L500.147,500.145L442.692,605.194L385.242,500.146L280.193,442.694L385.241,385.237L442.692,280.191L500.145,385.243Z" style="fill:rgb(153,153,153);fill-rule:nonzero;"/>
    <path d="M442.694,361.445L557.597,327.787L523.944,442.692L557.599,557.598L442.693,523.942L327.79,557.598L361.442,442.69L327.787,327.787L442.694,361.445Z" style="fill:rgb(153,153,153);fill-rule:nonzero;"/>
    <path d="M398.501,398.5L442.692,317.693L486.888,398.498L567.694,442.693L486.888,486.886L442.694,567.693L398.497,486.886L317.692,442.693L398.501,398.5Z" style="fill:rgb(174,174,174);fill-rule:nonzero;"/>
    <path d="M442.694,380.195L531.081,354.304L505.194,442.692L531.082,531.082L442.694,505.192L354.306,531.082L380.192,442.691L354.304,354.304L442.694,380.195Z" style="fill:rgb(174,174,174);fill-rule:nonzero;"/>
    <g transform="matrix(1,0,0,1,85.7637,459.877)">
        <text x="0px" y="0px" style="font-family:'Century', serif;font-size:62px;fill:rgb(238,238,238);">W</text>
    </g>
    <g transform="matrix(1,0,0,1,417.43,780.61)">
        <text x="0px" y="0px" style="font-family:'Century', serif;font-size:62px;fill:rgb(238,238,238);">S</text>
    </g>
    <g transform="matrix(1,0,0,1,749.096,459.877)">
        <text x="0px" y="0px" style="font-family:'Century', serif;font-size:62px;fill:rgb(238,238,238);">E</text>
    </g>
    <g transform="matrix(1,0,0,1,417.43,139.145)">
        <text x="0px" y="0px" style="font-family:'Century', serif;font-size:62px;fill:rgb(238,238,238);">N</text>
    </g>
</svg>
