<?xml version="1.0" encoding="UTF-8"?>
<svg xmlns="http://www.w3.org/2000/svg" xmlns:xlink="http://www.w3.org/1999/xlink" width="672.746643pt" height="476pt" viewBox="0 0 672.746643 476" version="1.1">
<defs>
<clipPath id="clip1">
  <path d="M 0 0 L 672.746094 0 L 672.746094 476 L 0 476 Z M 0 0 "/>
</clipPath>
</defs>
<g id="surface1">
<g clip-path="url(#clip1)" clip-rule="nonzero">
<rect x="0" y="0" width="672.746643" height="476" style="fill:rgb(78.431373%,78.431373%,78.431373%);fill-opacity:1;stroke:none;"/>
<rect x="0" y="0" width="672.746643" height="476" style="fill:rgb(91.372549%,91.372549%,91.372549%);fill-opacity:1;stroke:none;"/>
<rect x="0" y="0" width="672.746643" height="476" style="fill:rgb(100%,100%,100%);fill-opacity:1;stroke:none;"/>
<path style=" stroke:none;fill-rule:nonzero;fill:rgb(100%,100%,100%);fill-opacity:1;" d="M 0 0 L 672.746094 0 L 672.746094 476 L 0 476 Z M 0 0 "/>
</g>
<path style="fill:none;stroke-width:0.1;stroke-linecap:butt;stroke-linejoin:miter;stroke:rgb(0%,0%,54.117647%);stroke-opacity:1;stroke-miterlimit:10;" d="M 460.838619 225.000003 L 460.838619 225.051704 L 460.816462 225.155104 L 460.797998 225.203112 L 460.772148 225.251119 L 460.746297 225.295434 L 460.713061 225.336056 L 460.676133 225.372984 L 460.635511 225.40622 L 460.591196 225.432071 L 460.543189 225.457921 L 460.495181 225.476385 L 460.391781 225.498543 L 460.28838 225.498543 L 460.184979 225.476385 L 460.136972 225.457921 L 460.088964 225.432071 L 460.04465 225.40622 L 460.004028 225.372984 L 459.967099 225.336056 L 459.933863 225.295434 L 459.908013 225.251119 L 459.882163 225.203112 L 459.863698 225.155104 L 459.841541 225.051704 L 459.841541 224.948303 L 459.863698 224.844902 L 459.882163 224.796895 L 459.908013 224.748887 L 459.933863 224.704573 L 459.967099 224.663951 L 460.004028 224.627022 L 460.04465 224.593786 L 460.088964 224.567936 L 460.136972 224.542086 L 460.184979 224.523621 L 460.28838 224.501464 L 460.391781 224.501464 L 460.495181 224.523621 L 460.543189 224.542086 L 460.591196 224.567936 L 460.635511 224.593786 L 460.676133 224.627022 L 460.713061 224.663951 L 460.746297 224.704573 L 460.772148 224.748887 L 460.797998 224.796895 L 460.816462 224.844902 L 460.838619 224.948303 L 460.838619 225.000003 " transform="matrix(1.057778,0,0,1.057778,0,0)"/>
<path style="fill:none;stroke-width:0.1;stroke-linecap:butt;stroke-linejoin:miter;stroke:rgb(0%,0%,54.117647%);stroke-opacity:1;stroke-miterlimit:10;" d="M 460.34008 225.000003 L 460.491488 225.025853 " transform="matrix(1.057778,0,0,1.057778,0,0)"/>
<path style="fill:none;stroke-width:0.1;stroke-linecap:butt;stroke-linejoin:miter;stroke:rgb(0%,0%,54.117647%);stroke-opacity:1;stroke-miterlimit:10;" d="M 460.993721 225.025853 L 460.990028 225.077554 L 460.982642 225.129254 L 460.96787 225.177262 L 460.949406 225.228962 L 460.897706 225.317591 L 460.86447 225.358213 L 460.827541 225.395142 L 460.786919 225.428378 L 460.742605 225.457921 L 460.694597 225.480078 L 460.64659 225.498543 L 460.594889 225.513314 L 460.543189 225.5207 L 460.491488 225.524393 L 460.439788 225.5207 L 460.388088 225.513314 L 460.336387 225.498543 L 460.28838 225.480078 L 460.244065 225.457921 L 460.199751 225.428378 L 460.159129 225.395142 L 460.1222 225.358213 L 460.088964 225.317591 L 460.059421 225.273277 L 460.037264 225.228962 L 460.015106 225.177262 L 460.004028 225.129254 L 459.996642 225.077554 L 459.992949 225.025853 L 459.996642 224.97046 L 460.004028 224.91876 L 460.015106 224.870752 L 460.037264 224.819052 L 460.059421 224.774737 L 460.088964 224.730423 L 460.1222 224.689801 L 460.159129 224.652872 L 460.199751 224.619636 L 460.244065 224.590093 L 460.28838 224.567936 L 460.336387 224.549471 L 460.388088 224.5347 L 460.439788 224.527314 L 460.491488 224.523621 L 460.543189 224.527314 L 460.594889 224.5347 L 460.64659 224.549471 L 460.694597 224.567936 L 460.742605 224.590093 L 460.786919 224.619636 L 460.827541 224.652872 L 460.86447 224.689801 L 460.897706 224.730423 L 460.949406 224.819052 L 460.96787 224.870752 L 460.982642 224.91876 L 460.990028 224.97046 L 460.993721 225.025853 " transform="matrix(1.057778,0,0,1.057778,0,0)"/>
<path style="fill:none;stroke-width:0.1;stroke-linecap:butt;stroke-linejoin:miter;stroke:rgb(0%,0%,0%);stroke-opacity:1;stroke-miterlimit:10;" d="M 464.014499 224.867059 L 463.907406 224.903988 L 463.792926 224.985232 L 463.726454 225.077554 L 463.652597 225.221576 L 463.611975 225.468999 L 463.637825 225.627793 L 463.671061 225.734887 L 463.755997 225.849366 L 463.84832 225.915838 L 464.047735 225.945381 L 464.154829 225.912145 L 464.269308 225.830902 L 464.33578 225.73858 L 464.409638 225.594558 L 464.45026 225.347134 L 464.424409 225.18834 L 464.391173 225.081247 L 464.306237 224.966767 L 464.213915 224.900295 L 464.014499 224.867059 " transform="matrix(1.057778,0,0,1.057778,0,0)"/>
<path style="fill:none;stroke-width:0.1;stroke-linecap:butt;stroke-linejoin:miter;stroke:rgb(0%,0%,0%);stroke-opacity:1;stroke-miterlimit:10;" d="M 465.510117 225.107097 L 464.645982 226.041396 " transform="matrix(1.057778,0,0,1.057778,0,0)"/>
<path style="fill:none;stroke-width:0.1;stroke-linecap:butt;stroke-linejoin:miter;stroke:rgb(0%,0%,0%);stroke-opacity:1;stroke-miterlimit:10;" d="M 464.812162 224.99631 L 465.510117 225.107097 " transform="matrix(1.057778,0,0,1.057778,0,0)"/>
<path style="fill:none;stroke-width:0.1;stroke-linecap:butt;stroke-linejoin:miter;stroke:rgb(0%,0%,0%);stroke-opacity:1;stroke-miterlimit:10;" d="M 464.645982 226.041396 L 465.343937 226.152183 " transform="matrix(1.057778,0,0,1.057778,0,0)"/>
<path style="fill:none;stroke-width:0.1;stroke-linecap:butt;stroke-linejoin:miter;stroke:rgb(0%,0%,0%);stroke-opacity:1;stroke-miterlimit:10;" d="M 466.30778 225.232655 L 465.698454 225.853059 L 466.444417 225.971232 " transform="matrix(1.057778,0,0,1.057778,0,0)"/>
<path style="fill:none;stroke-width:0.1;stroke-linecap:butt;stroke-linejoin:miter;stroke:rgb(0%,0%,0%);stroke-opacity:1;stroke-miterlimit:10;" d="M 466.30778 225.232655 L 466.1416 226.281434 " transform="matrix(1.057778,0,0,1.057778,0,0)"/>
<path style="fill:none;stroke-width:0.1;stroke-linecap:butt;stroke-linejoin:miter;stroke:rgb(0%,0%,0%);stroke-opacity:1;stroke-miterlimit:10;" d="M 466.854327 225.321284 L 466.688147 226.36637 " transform="matrix(1.057778,0,0,1.057778,0,0)"/>
<path style="fill:none;stroke-width:0.1;stroke-linecap:butt;stroke-linejoin:miter;stroke:rgb(0%,0%,0%);stroke-opacity:1;stroke-miterlimit:10;" d="M 466.854327 225.321284 L 467.504274 225.424685 " transform="matrix(1.057778,0,0,1.057778,0,0)"/>
<path style="fill:none;stroke-width:0.1;stroke-linecap:butt;stroke-linejoin:miter;stroke:rgb(0%,0%,0%);stroke-opacity:1;stroke-miterlimit:10;" d="M 466.776776 225.819823 L 467.175607 225.882602 " transform="matrix(1.057778,0,0,1.057778,0,0)"/>
<path style="fill:none;stroke-width:0.1;stroke-linecap:butt;stroke-linejoin:miter;stroke:rgb(0%,0%,0%);stroke-opacity:1;stroke-miterlimit:10;" d="M 466.688147 226.36637 L 467.338094 226.469771 " transform="matrix(1.057778,0,0,1.057778,0,0)"/>
<path style="fill:none;stroke-width:0.1;stroke-linecap:butt;stroke-linejoin:miter;stroke:rgb(0%,0%,0%);stroke-opacity:1;stroke-miterlimit:10;" d="M 467.803398 225.468999 L 467.637218 226.517778 " transform="matrix(1.057778,0,0,1.057778,0,0)"/>
<path style="fill:none;stroke-width:0.1;stroke-linecap:butt;stroke-linejoin:miter;stroke:rgb(0%,0%,0%);stroke-opacity:1;stroke-miterlimit:10;" d="M 467.803398 225.468999 L 468.150529 225.524393 L 468.294551 225.59825 L 468.379488 225.716423 L 468.412723 225.823516 L 468.438574 225.978617 L 468.397952 226.229733 L 468.324094 226.370063 L 468.257622 226.462385 L 468.143143 226.547321 L 467.984349 226.573172 L 467.637218 226.517778 " transform="matrix(1.057778,0,0,1.057778,0,0)"/>
<path style="fill:none;stroke-width:0.1;stroke-linecap:butt;stroke-linejoin:miter;stroke:rgb(0%,0%,0%);stroke-opacity:1;stroke-miterlimit:10;" d="M 468.848484 225.638872 L 468.682304 226.683958 " transform="matrix(1.057778,0,0,1.057778,0,0)"/>
<path style="fill:none;stroke-width:0.1;stroke-linecap:butt;stroke-linejoin:miter;stroke:rgb(0%,0%,0%);stroke-opacity:1;stroke-miterlimit:10;" d="M 468.848484 225.638872 L 469.299015 225.709037 L 469.439345 225.782895 L 469.48366 225.838288 L 469.516896 225.949074 L 469.502124 226.048782 L 469.435652 226.137411 L 469.376566 226.181726 L 469.217772 226.207576 L 468.770933 226.137411 " transform="matrix(1.057778,0,0,1.057778,0,0)"/>
<path style="fill:none;stroke-width:0.1;stroke-linecap:butt;stroke-linejoin:miter;stroke:rgb(0%,0%,0%);stroke-opacity:1;stroke-miterlimit:10;" d="M 469.118064 226.192805 L 469.380259 226.794745 " transform="matrix(1.057778,0,0,1.057778,0,0)"/>
<path style="fill:none;stroke-width:0.1;stroke-linecap:butt;stroke-linejoin:miter;stroke:rgb(0%,0%,0%);stroke-opacity:1;stroke-miterlimit:10;" d="M 471.093757 225.993389 L 470.968199 226.791052 L 470.894341 226.931381 L 470.835255 226.975696 L 470.728161 227.008932 L 470.628454 226.99416 L 470.536131 226.927688 L 470.49551 226.868602 L 470.46966 226.713501 L 470.484431 226.613793 " transform="matrix(1.057778,0,0,1.057778,0,0)"/>
<path style="fill:none;stroke-width:0.1;stroke-linecap:butt;stroke-linejoin:miter;stroke:rgb(0%,0%,0%);stroke-opacity:1;stroke-miterlimit:10;" d="M 471.740011 226.09679 L 471.632918 226.130026 L 471.518438 226.214962 L 471.451967 226.307284 L 471.378109 226.447614 L 471.34118 226.69873 L 471.36703 226.853831 L 471.400266 226.960924 L 471.48151 227.079097 L 471.573832 227.141876 L 471.773247 227.175112 L 471.880341 227.141876 L 471.998513 227.056939 L 472.064985 226.964617 L 472.13515 226.824288 L 472.175772 226.573172 L 472.149922 226.418071 L 472.116686 226.310977 L 472.031749 226.192805 L 471.939427 226.130026 L 471.740011 226.09679 " transform="matrix(1.057778,0,0,1.057778,0,0)"/>
<path style="fill:none;stroke-width:0.1;stroke-linecap:butt;stroke-linejoin:miter;stroke:rgb(0%,0%,0%);stroke-opacity:1;stroke-miterlimit:10;" d="M 473.235629 226.333134 L 472.57091 227.30067 " transform="matrix(1.057778,0,0,1.057778,0,0)"/>
<path style="fill:none;stroke-width:0.1;stroke-linecap:butt;stroke-linejoin:miter;stroke:rgb(0%,0%,0%);stroke-opacity:1;stroke-miterlimit:10;" d="M 472.537674 226.222348 L 473.235629 226.333134 " transform="matrix(1.057778,0,0,1.057778,0,0)"/>
<path style="fill:none;stroke-width:0.1;stroke-linecap:butt;stroke-linejoin:miter;stroke:rgb(0%,0%,0%);stroke-opacity:1;stroke-miterlimit:10;" d="M 474.133 226.477157 L 473.634461 226.399606 L 473.516288 226.839059 L 473.571682 226.794745 L 473.730476 226.768894 L 473.878191 226.794745 L 474.022213 226.868602 L 474.103457 226.983082 L 474.129307 227.141876 L 474.114536 227.241584 L 474.040678 227.381913 L 473.926198 227.466849 L 473.767404 227.4927 L 473.619689 227.466849 L 473.475667 227.392992 L 473.435045 227.337598 L 473.401809 227.230505 " transform="matrix(1.057778,0,0,1.057778,0,0)"/>
<path style="fill:none;stroke-width:0.1;stroke-linecap:butt;stroke-linejoin:miter;stroke:rgb(0%,0%,0%);stroke-opacity:1;stroke-miterlimit:10;" d="M 474.531831 226.539936 L 474.576146 226.599022 L 474.631539 226.554707 L 474.590917 226.499314 L 474.531831 226.539936 " transform="matrix(1.057778,0,0,1.057778,0,0)"/>
<path style="fill:none;stroke-width:0.1;stroke-linecap:butt;stroke-linejoin:miter;stroke:rgb(0%,0%,0%);stroke-opacity:1;stroke-miterlimit:10;" d="M 474.528138 226.898145 L 474.417352 227.5961 " transform="matrix(1.057778,0,0,1.057778,0,0)"/>
<path style="fill:none;stroke-width:0.1;stroke-linecap:butt;stroke-linejoin:miter;stroke:rgb(0%,0%,0%);stroke-opacity:1;stroke-miterlimit:10;" d="M 475.451359 227.197269 L 475.366423 227.08279 L 475.274101 227.016318 L 475.126386 226.99416 L 475.019292 227.027396 L 474.90112 227.10864 L 474.827262 227.252662 L 474.81249 227.35237 L 474.838341 227.507471 L 474.923277 227.625643 L 475.015599 227.688422 L 475.163314 227.714273 L 475.270408 227.681037 L 475.38858 227.5961 " transform="matrix(1.057778,0,0,1.057778,0,0)"/>
<path style="fill:none;stroke-width:0.1;stroke-linecap:butt;stroke-linejoin:miter;stroke:rgb(0%,0%,0%);stroke-opacity:1;stroke-miterlimit:10;" d="M 475.820648 227.765973 L 475.761562 227.810288 L 475.72094 227.751201 L 475.780026 227.71058 L 475.820648 227.765973 L 475.805876 227.865681 L 475.739404 227.958003 L 475.680318 228.002318 " transform="matrix(1.057778,0,0,1.057778,0,0)"/>
<path style="fill:none;stroke-width:0.1;stroke-linecap:butt;stroke-linejoin:miter;stroke:rgb(0%,0%,0%);stroke-opacity:1;stroke-miterlimit:10;" d="M 477.175936 226.960924 L 477.009756 228.00601 " transform="matrix(1.057778,0,0,1.057778,0,0)"/>
<path style="fill:none;stroke-width:0.1;stroke-linecap:butt;stroke-linejoin:miter;stroke:rgb(0%,0%,0%);stroke-opacity:1;stroke-miterlimit:10;" d="M 477.175936 226.960924 L 477.622775 227.031089 L 477.766797 227.104947 L 477.807419 227.164033 L 477.840655 227.271127 L 477.825883 227.370834 L 477.759411 227.463157 L 477.700325 227.503778 L 477.545224 227.529628 L 477.094692 227.459464 " transform="matrix(1.057778,0,0,1.057778,0,0)"/>
<path style="fill:none;stroke-width:0.1;stroke-linecap:butt;stroke-linejoin:miter;stroke:rgb(0%,0%,0%);stroke-opacity:1;stroke-miterlimit:10;" d="M 477.445516 227.514857 L 477.707711 228.116797 " transform="matrix(1.057778,0,0,1.057778,0,0)"/>
<path style="fill:none;stroke-width:0.1;stroke-linecap:butt;stroke-linejoin:miter;stroke:rgb(0%,0%,0%);stroke-opacity:1;stroke-miterlimit:10;" d="M 478.365044 227.507471 L 478.257951 227.540707 L 478.143471 227.625643 L 478.069614 227.765973 L 478.054842 227.865681 L 478.080692 228.024475 L 478.161936 228.138954 L 478.254258 228.205426 L 478.405666 228.227583 L 478.51276 228.194347 L 478.627239 228.109411 L 478.701097 227.969082 L 478.715868 227.869374 L 478.690018 227.71058 L 478.608775 227.5961 L 478.516453 227.529628 L 478.365044 227.507471 " transform="matrix(1.057778,0,0,1.057778,0,0)"/>
<path style="fill:none;stroke-width:0.1;stroke-linecap:butt;stroke-linejoin:miter;stroke:rgb(0%,0%,0%);stroke-opacity:1;stroke-miterlimit:10;" d="M 479.1147 227.625643 L 479.003913 228.323598 " transform="matrix(1.057778,0,0,1.057778,0,0)"/>
<path style="fill:none;stroke-width:0.1;stroke-linecap:butt;stroke-linejoin:miter;stroke:rgb(0%,0%,0%);stroke-opacity:1;stroke-miterlimit:10;" d="M 479.081464 227.825059 L 479.255029 227.699501 L 479.362123 227.666265 L 479.513531 227.688422 L 479.605853 227.754894 L 479.631703 227.913688 L 479.55046 228.412228 " transform="matrix(1.057778,0,0,1.057778,0,0)"/>
<path style="fill:none;stroke-width:0.1;stroke-linecap:butt;stroke-linejoin:miter;stroke:rgb(0%,0%,0%);stroke-opacity:1;stroke-miterlimit:10;" d="M 480.060078 227.777052 L 479.949291 228.475007 " transform="matrix(1.057778,0,0,1.057778,0,0)"/>
<path style="fill:none;stroke-width:0.1;stroke-linecap:butt;stroke-linejoin:miter;stroke:rgb(0%,0%,0%);stroke-opacity:1;stroke-miterlimit:10;" d="M 480.030535 227.976467 L 480.2041 227.850909 L 480.311194 227.817673 L 480.458909 227.839831 L 480.551231 227.906303 L 480.577082 228.065097 L 480.499531 228.563636 " transform="matrix(1.057778,0,0,1.057778,0,0)"/>
<path style="fill:none;stroke-width:0.1;stroke-linecap:butt;stroke-linejoin:miter;stroke:rgb(0%,0%,0%);stroke-opacity:1;stroke-miterlimit:10;" d="M 480.909441 228.220198 L 481.507688 228.31252 L 481.526153 228.212812 L 481.489224 228.105718 L 481.448602 228.050325 L 481.35628 227.983853 L 481.208565 227.958003 L 481.101471 227.991239 L 480.983299 228.076175 L 480.909441 228.220198 L 480.89467 228.319905 L 480.92052 228.475007 L 481.005456 228.589486 L 481.097778 228.655958 L 481.245493 228.681808 L 481.352587 228.644879 L 481.470759 228.563636 " transform="matrix(1.057778,0,0,1.057778,0,0)"/>
<path style="fill:none;stroke-width:0.1;stroke-linecap:butt;stroke-linejoin:miter;stroke:rgb(0%,0%,0%);stroke-opacity:1;stroke-miterlimit:10;" d="M 481.902827 228.733508 L 481.843741 228.77413 L 481.803119 228.718737 L 481.858512 228.674422 L 481.902827 228.733508 L 481.884362 228.833216 L 481.821583 228.925538 L 481.762497 228.96616 " transform="matrix(1.057778,0,0,1.057778,0,0)"/>
<path style="fill:none;stroke-width:0.1;stroke-linecap:butt;stroke-linejoin:miter;stroke:rgb(0%,0%,0%);stroke-opacity:1;stroke-miterlimit:10;" d="M 483.258115 227.92846 L 483.091935 228.973546 " transform="matrix(1.057778,0,0,1.057778,0,0)"/>
<path style="fill:none;stroke-width:0.1;stroke-linecap:butt;stroke-linejoin:miter;stroke:rgb(0%,0%,0%);stroke-opacity:1;stroke-miterlimit:10;" d="M 483.258115 227.92846 L 483.704954 227.998625 L 483.848976 228.072482 L 483.889598 228.127876 L 483.922834 228.238662 L 483.908062 228.33837 L 483.841591 228.426999 L 483.782504 228.471314 L 483.627403 228.497164 L 483.176872 228.426999 " transform="matrix(1.057778,0,0,1.057778,0,0)"/>
<path style="fill:none;stroke-width:0.1;stroke-linecap:butt;stroke-linejoin:miter;stroke:rgb(0%,0%,0%);stroke-opacity:1;stroke-miterlimit:10;" d="M 483.527695 228.482392 L 483.78989 229.084332 " transform="matrix(1.057778,0,0,1.057778,0,0)"/>
<path style="fill:none;stroke-width:0.1;stroke-linecap:butt;stroke-linejoin:miter;stroke:rgb(0%,0%,0%);stroke-opacity:1;stroke-miterlimit:10;" d="M 484.447223 228.475007 L 484.34013 228.508243 L 484.22565 228.593179 L 484.151793 228.733508 L 484.133328 228.833216 L 484.162871 228.99201 L 484.244115 229.10649 L 484.336437 229.172962 L 484.487845 229.195119 L 484.594939 229.161883 L 484.709418 229.076947 L 484.783276 228.936617 L 484.798047 228.836909 L 484.772197 228.678115 L 484.687261 228.563636 L 484.598632 228.497164 L 484.447223 228.475007 " transform="matrix(1.057778,0,0,1.057778,0,0)"/>
<path style="fill:none;stroke-width:0.1;stroke-linecap:butt;stroke-linejoin:miter;stroke:rgb(0%,0%,0%);stroke-opacity:1;stroke-miterlimit:10;" d="M 485.196879 228.593179 L 485.086092 229.291134 " transform="matrix(1.057778,0,0,1.057778,0,0)"/>
<path style="fill:none;stroke-width:0.1;stroke-linecap:butt;stroke-linejoin:miter;stroke:rgb(0%,0%,0%);stroke-opacity:1;stroke-miterlimit:10;" d="M 485.163643 228.792595 L 485.337208 228.667037 L 485.444302 228.633801 L 485.59571 228.655958 L 485.684339 228.72243 L 485.713882 228.881224 L 485.632639 229.379763 " transform="matrix(1.057778,0,0,1.057778,0,0)"/>
<path style="fill:none;stroke-width:0.1;stroke-linecap:butt;stroke-linejoin:miter;stroke:rgb(0%,0%,0%);stroke-opacity:1;stroke-miterlimit:10;" d="M 486.142257 228.744587 L 486.03147 229.442542 " transform="matrix(1.057778,0,0,1.057778,0,0)"/>
<path style="fill:none;stroke-width:0.1;stroke-linecap:butt;stroke-linejoin:miter;stroke:rgb(0%,0%,0%);stroke-opacity:1;stroke-miterlimit:10;" d="M 486.112714 228.944003 L 486.282587 228.818445 L 486.393373 228.781516 L 486.541088 228.807366 L 486.63341 228.873838 L 486.659261 229.028939 L 486.58171 229.527478 " transform="matrix(1.057778,0,0,1.057778,0,0)"/>
<path style="fill:none;stroke-width:0.1;stroke-linecap:butt;stroke-linejoin:miter;stroke:rgb(0%,0%,0%);stroke-opacity:1;stroke-miterlimit:10;" d="M 486.99162 229.18404 L 487.589867 229.280055 L 487.604639 229.180347 L 487.571403 229.073254 L 487.530781 229.014168 L 487.438459 228.947696 L 487.290744 228.925538 L 487.179957 228.958774 L 487.065478 229.043711 L 486.99162 229.18404 L 486.976849 229.283748 L 487.002699 229.442542 L 487.087635 229.557021 L 487.179957 229.623493 L 487.327673 229.645651 L 487.434766 229.612415 L 487.549246 229.531171 " transform="matrix(1.057778,0,0,1.057778,0,0)"/>
<path style="fill:none;stroke-width:0.1;stroke-linecap:butt;stroke-linejoin:miter;stroke:rgb(0%,0%,0%);stroke-opacity:1;stroke-miterlimit:10;" d="M 487.985006 229.701044 L 487.92592 229.741666 L 487.885298 229.686272 L 487.940691 229.641958 L 487.985006 229.701044 L 487.966541 229.800752 L 487.903762 229.893074 L 487.844676 229.933696 " transform="matrix(1.057778,0,0,1.057778,0,0)"/>
<path style="fill:none;stroke-width:0.1;stroke-linecap:butt;stroke-linejoin:miter;stroke:rgb(0%,0%,0%);stroke-opacity:1;stroke-miterlimit:10;" d="M 489.388301 228.903381 L 489.938541 228.988317 L 489.572946 229.339141 L 489.724354 229.364992 L 489.816676 229.427771 L 489.857298 229.486857 L 489.883148 229.645651 L 489.868376 229.745359 L 489.794519 229.885688 L 489.680039 229.970624 L 489.521245 229.996475 L 489.369837 229.970624 L 489.229508 229.896767 L 489.188886 229.841373 L 489.15565 229.73428 " transform="matrix(1.057778,0,0,1.057778,0,0)"/>
<path style="fill:none;stroke-width:0.1;stroke-linecap:butt;stroke-linejoin:miter;stroke:rgb(0%,0%,0%);stroke-opacity:1;stroke-miterlimit:10;" d="M 490.983627 229.154497 L 490.318908 230.122033 " transform="matrix(1.057778,0,0,1.057778,0,0)"/>
<path style="fill:none;stroke-width:0.1;stroke-linecap:butt;stroke-linejoin:miter;stroke:rgb(0%,0%,0%);stroke-opacity:1;stroke-miterlimit:10;" d="M 490.285672 229.043711 L 490.983627 229.154497 " transform="matrix(1.057778,0,0,1.057778,0,0)"/>
<path style="fill:none;stroke-width:0.1;stroke-linecap:butt;stroke-linejoin:miter;stroke:rgb(0%,0%,0%);stroke-opacity:1;stroke-miterlimit:10;" d="M 491.581874 229.250512 L 491.42308 229.276362 L 491.301215 229.409306 L 491.212586 229.653036 L 491.186736 229.800752 L 491.197814 230.059254 L 491.275365 230.22174 L 491.415695 230.295598 L 491.515402 230.314063 L 491.674196 230.288212 L 491.796062 230.151576 L 491.884691 229.911538 L 491.910541 229.763823 L 491.899462 229.505321 L 491.821912 229.339141 L 491.681582 229.265284 L 491.581874 229.250512 " transform="matrix(1.057778,0,0,1.057778,0,0)"/>
<path style="fill:none;stroke-width:0.1;stroke-linecap:butt;stroke-linejoin:miter;stroke:rgb(0%,0%,0%);stroke-opacity:1;stroke-miterlimit:10;" d="M 492.578953 229.409306 L 492.420159 229.435156 L 492.298294 229.5681 L 492.209664 229.808138 L 492.183814 229.959546 L 492.194893 230.218048 L 492.272443 230.380534 L 492.412773 230.454392 L 492.512481 230.472857 L 492.671275 230.447006 L 492.79314 230.31037 L 492.881769 230.070332 L 492.907619 229.918924 L 492.896541 229.664115 L 492.81899 229.497935 L 492.678661 229.424078 L 492.578953 229.409306 " transform="matrix(1.057778,0,0,1.057778,0,0)"/>
<path style="fill:none;stroke-width:0.1;stroke-linecap:butt;stroke-linejoin:miter;stroke:rgb(0%,0%,0%);stroke-opacity:1;stroke-miterlimit:10;" d="M 493.269522 230.539328 L 493.210436 230.583643 L 493.169814 230.524557 L 493.225207 230.483935 L 493.269522 230.539328 L 493.251058 230.639036 L 493.184586 230.731358 L 493.129192 230.77198 " transform="matrix(1.057778,0,0,1.057778,0,0)"/>
<path style="fill:none;stroke-width:0.1;stroke-linecap:butt;stroke-linejoin:miter;stroke:rgb(0%,0%,0%);stroke-opacity:1;stroke-miterlimit:10;" d="M 494.621117 229.73428 L 494.454938 230.779366 " transform="matrix(1.057778,0,0,1.057778,0,0)"/>
<path style="fill:none;stroke-width:0.1;stroke-linecap:butt;stroke-linejoin:miter;stroke:rgb(0%,0%,0%);stroke-opacity:1;stroke-miterlimit:10;" d="M 494.621117 229.73428 L 495.071649 229.804445 L 495.211979 229.878302 L 495.256293 229.937388 L 495.289529 230.044482 L 495.274758 230.14419 L 495.208286 230.236512 L 495.1492 230.277134 L 494.990406 230.302984 " transform="matrix(1.057778,0,0,1.057778,0,0)"/>
<path style="fill:none;stroke-width:0.1;stroke-linecap:butt;stroke-linejoin:miter;stroke:rgb(0%,0%,0%);stroke-opacity:1;stroke-miterlimit:10;" d="M 494.543567 230.232819 L 494.990406 230.302984 L 495.134428 230.376842 L 495.17505 230.435928 L 495.208286 230.543021 L 495.186129 230.690737 L 495.119657 230.783059 L 495.064263 230.827373 L 494.905469 230.853224 L 494.454938 230.779366 " transform="matrix(1.057778,0,0,1.057778,0,0)"/>
<path style="fill:none;stroke-width:0.1;stroke-linecap:butt;stroke-linejoin:miter;stroke:rgb(0%,0%,0%);stroke-opacity:1;stroke-miterlimit:10;" d="M 495.813919 230.280827 L 495.706825 230.314063 L 495.588653 230.398999 L 495.518488 230.539328 L 495.500024 230.639036 L 495.525874 230.79783 L 495.61081 230.91231 L 495.703132 230.978782 L 495.850848 231.000939 L 495.961634 230.967703 L 496.076113 230.882767 L 496.149971 230.742437 L 496.164743 230.642729 L 496.138892 230.483935 L 496.053956 230.369456 L 495.961634 230.302984 L 495.813919 230.280827 " transform="matrix(1.057778,0,0,1.057778,0,0)"/>
<path style="fill:none;stroke-width:0.1;stroke-linecap:butt;stroke-linejoin:miter;stroke:rgb(0%,0%,0%);stroke-opacity:1;stroke-miterlimit:10;" d="M 496.559881 230.398999 L 496.449095 231.096954 " transform="matrix(1.057778,0,0,1.057778,0,0)"/>
<path style="fill:none;stroke-width:0.1;stroke-linecap:butt;stroke-linejoin:miter;stroke:rgb(0%,0%,0%);stroke-opacity:1;stroke-miterlimit:10;" d="M 496.515567 230.698122 L 496.585731 230.557793 L 496.703904 230.472857 L 496.810997 230.439621 L 496.958713 230.461778 " transform="matrix(1.057778,0,0,1.057778,0,0)"/>
<path style="fill:none;stroke-width:0.1;stroke-linecap:butt;stroke-linejoin:miter;stroke:rgb(0%,0%,0%);stroke-opacity:1;stroke-miterlimit:10;" d="M 497.209829 230.5024 L 497.099042 231.200355 " transform="matrix(1.057778,0,0,1.057778,0,0)"/>
<path style="fill:none;stroke-width:0.1;stroke-linecap:butt;stroke-linejoin:miter;stroke:rgb(0%,0%,0%);stroke-opacity:1;stroke-miterlimit:10;" d="M 497.176593 230.701815 L 497.350158 230.576257 L 497.457252 230.543021 L 497.60866 230.565179 L 497.700982 230.631651 L 497.726832 230.790445 L 497.645589 231.288984 " transform="matrix(1.057778,0,0,1.057778,0,0)"/>
<path style="fill:none;stroke-width:0.1;stroke-linecap:butt;stroke-linejoin:miter;stroke:rgb(0%,0%,0%);stroke-opacity:1;stroke-miterlimit:10;" d="M 498.2106 230.302984 L 498.04442 231.351763 " transform="matrix(1.057778,0,0,1.057778,0,0)"/>
<path style="fill:none;stroke-width:0.1;stroke-linecap:butt;stroke-linejoin:miter;stroke:rgb(0%,0%,0%);stroke-opacity:1;stroke-miterlimit:10;" d="M 498.125664 230.853224 L 498.299229 230.727666 L 498.406323 230.69443 L 498.554038 230.716587 L 498.64636 230.783059 L 498.67221 230.93816 L 498.59466 231.436699 " transform="matrix(1.057778,0,0,1.057778,0,0)"/>
<path style="fill:none;stroke-width:0.1;stroke-linecap:butt;stroke-linejoin:miter;stroke:rgb(0%,0%,0%);stroke-opacity:1;stroke-miterlimit:10;" d="M 499.303694 230.834759 L 499.1966 230.867995 L 499.078428 230.952931 L 499.00457 231.093261 L 498.989798 231.192969 L 499.015649 231.351763 L 499.100585 231.466242 L 499.192907 231.532714 L 499.340622 231.558564 L 499.447716 231.521635 L 499.565888 231.440392 L 499.639746 231.29637 L 499.654517 231.196662 L 499.628667 231.041561 L 499.543731 230.923388 L 499.451409 230.860609 L 499.303694 230.834759 " transform="matrix(1.057778,0,0,1.057778,0,0)"/>
<path style="fill:none;stroke-width:0.1;stroke-linecap:butt;stroke-linejoin:miter;stroke:rgb(0%,0%,0%);stroke-opacity:1;stroke-miterlimit:10;" d="M 500.105049 230.6058 L 499.93887 231.650886 " transform="matrix(1.057778,0,0,1.057778,0,0)"/>
<path style="fill:none;stroke-width:0.1;stroke-linecap:butt;stroke-linejoin:miter;stroke:rgb(0%,0%,0%);stroke-opacity:1;stroke-miterlimit:10;" d="M 500.448487 231.01571 L 500.337701 231.713665 " transform="matrix(1.057778,0,0,1.057778,0,0)"/>
<path style="fill:none;stroke-width:0.1;stroke-linecap:butt;stroke-linejoin:miter;stroke:rgb(0%,0%,0%);stroke-opacity:1;stroke-miterlimit:10;" d="M 500.418944 231.215126 L 500.59251 231.089568 L 500.699604 231.056332 L 500.847319 231.082182 L 500.939641 231.144961 L 500.965491 231.303755 L 500.887941 231.802295 " transform="matrix(1.057778,0,0,1.057778,0,0)"/>
<path style="fill:none;stroke-width:0.1;stroke-linecap:butt;stroke-linejoin:miter;stroke:rgb(0%,0%,0%);stroke-opacity:1;stroke-miterlimit:10;" d="M 500.965491 231.303755 L 501.139057 231.178197 L 501.24615 231.144961 L 501.397558 231.167119 L 501.489881 231.233591 L 501.515731 231.392385 L 501.434487 231.890924 " transform="matrix(1.057778,0,0,1.057778,0,0)"/>
<path style="fill:none;stroke-width:0.1;stroke-linecap:butt;stroke-linejoin:miter;stroke:rgb(0%,0%,0%);stroke-opacity:1;stroke-miterlimit:10;" d="M 501.940412 231.920467 L 501.885019 231.961089 L 501.840705 231.902002 L 501.899791 231.861381 L 501.940412 231.920467 L 501.925641 232.020175 L 501.859169 232.108804 L 501.803776 232.153119 " transform="matrix(1.057778,0,0,1.057778,0,0)"/>
<path style="fill:none;stroke-width:0.1;stroke-linecap:butt;stroke-linejoin:miter;stroke:rgb(0%,0%,0%);stroke-opacity:1;stroke-miterlimit:10;" d="M 503.956727 231.473628 L 503.919798 231.366534 L 503.838554 231.248362 L 503.746232 231.18189 L 503.546817 231.152347 L 503.439723 231.185583 L 503.321551 231.270519 L 503.258772 231.362841 L 503.184914 231.503171 L 503.144292 231.750594 L 503.170143 231.909388 L 503.203379 232.016482 L 503.288315 232.134654 L 503.380637 232.197433 L 503.580053 232.230669 L 503.687146 232.197433 L 503.801626 232.112497 L 503.868098 232.020175 " transform="matrix(1.057778,0,0,1.057778,0,0)"/>
<path style="fill:none;stroke-width:0.1;stroke-linecap:butt;stroke-linejoin:miter;stroke:rgb(0%,0%,0%);stroke-opacity:1;stroke-miterlimit:10;" d="M 504.835633 231.713665 L 504.724846 232.41162 " transform="matrix(1.057778,0,0,1.057778,0,0)"/>
<path style="fill:none;stroke-width:0.1;stroke-linecap:butt;stroke-linejoin:miter;stroke:rgb(0%,0%,0%);stroke-opacity:1;stroke-miterlimit:10;" d="M 504.813476 231.865074 L 504.728539 231.750594 L 504.636217 231.684122 L 504.488502 231.658272 L 504.381408 231.691508 L 504.263236 231.776444 L 504.189378 231.920467 L 504.174607 232.020175 L 504.200457 232.175276 L 504.285393 232.289755 L 504.377715 232.356227 L 504.525431 232.382077 L 504.632524 232.345148 L 504.750697 232.263905 " transform="matrix(1.057778,0,0,1.057778,0,0)"/>
<path style="fill:none;stroke-width:0.1;stroke-linecap:butt;stroke-linejoin:miter;stroke:rgb(0%,0%,0%);stroke-opacity:1;stroke-miterlimit:10;" d="M 505.234464 231.776444 L 505.068285 232.825223 " transform="matrix(1.057778,0,0,1.057778,0,0)"/>
<path style="fill:none;stroke-width:0.1;stroke-linecap:butt;stroke-linejoin:miter;stroke:rgb(0%,0%,0%);stroke-opacity:1;stroke-miterlimit:10;" d="M 505.212307 231.927853 L 505.326786 231.842916 L 505.43388 231.80968 L 505.585288 231.831838 L 505.67761 231.89831 L 505.758854 232.016482 L 505.784704 232.171583 L 505.769933 232.271291 L 505.696075 232.415313 L 505.581595 232.496557 L 505.474502 232.529793 L 505.323094 232.507635 L 505.230772 232.441163 L 505.149528 232.326684 " transform="matrix(1.057778,0,0,1.057778,0,0)"/>
<path style="fill:none;stroke-width:0.1;stroke-linecap:butt;stroke-linejoin:miter;stroke:rgb(0%,0%,0%);stroke-opacity:1;stroke-miterlimit:10;" d="M 506.187228 231.573336 L 506.231543 231.628729 L 506.286936 231.588107 L 506.246314 231.529021 L 506.187228 231.573336 " transform="matrix(1.057778,0,0,1.057778,0,0)"/>
<path style="fill:none;stroke-width:0.1;stroke-linecap:butt;stroke-linejoin:miter;stroke:rgb(0%,0%,0%);stroke-opacity:1;stroke-miterlimit:10;" d="M 506.183535 231.927853 L 506.072749 232.625808 " transform="matrix(1.057778,0,0,1.057778,0,0)"/>
<path style="fill:none;stroke-width:0.1;stroke-linecap:butt;stroke-linejoin:miter;stroke:rgb(0%,0%,0%);stroke-opacity:1;stroke-miterlimit:10;" d="M 506.685768 231.650886 L 506.552824 232.50025 L 506.578674 232.655351 L 506.670996 232.721823 L 506.770704 232.736594 " transform="matrix(1.057778,0,0,1.057778,0,0)"/>
<path style="fill:none;stroke-width:0.1;stroke-linecap:butt;stroke-linejoin:miter;stroke:rgb(0%,0%,0%);stroke-opacity:1;stroke-miterlimit:10;" d="M 506.482659 231.97586 L 506.82979 232.031253 " transform="matrix(1.057778,0,0,1.057778,0,0)"/>
<path style="fill:none;stroke-width:0.1;stroke-linecap:butt;stroke-linejoin:miter;stroke:rgb(0%,0%,0%);stroke-opacity:1;stroke-miterlimit:10;" d="M 507.727161 232.175276 L 507.616374 232.873231 " transform="matrix(1.057778,0,0,1.057778,0,0)"/>
<path style="fill:none;stroke-width:0.1;stroke-linecap:butt;stroke-linejoin:miter;stroke:rgb(0%,0%,0%);stroke-opacity:1;stroke-miterlimit:10;" d="M 507.705003 232.322991 L 507.620067 232.208512 L 507.527745 232.14204 L 507.38003 232.119883 L 507.272936 232.153119 L 507.154764 232.238055 L 507.080906 232.378384 L 507.066135 232.478092 L 507.091985 232.636886 L 507.176921 232.751366 L 507.269243 232.817838 L 507.416959 232.839995 L 507.524052 232.806759 L 507.642224 232.721823 " transform="matrix(1.057778,0,0,1.057778,0,0)"/>
<path style="fill:none;stroke-width:0.1;stroke-linecap:butt;stroke-linejoin:miter;stroke:rgb(0%,0%,0%);stroke-opacity:1;stroke-miterlimit:10;" d="M 508.181385 231.887231 L 508.015206 232.93601 " transform="matrix(1.057778,0,0,1.057778,0,0)"/>
<path style="fill:none;stroke-width:0.1;stroke-linecap:butt;stroke-linejoin:miter;stroke:rgb(0%,0%,0%);stroke-opacity:1;stroke-miterlimit:10;" d="M 509.37788 232.079261 L 509.2117 233.124347 " transform="matrix(1.057778,0,0,1.057778,0,0)"/>
<path style="fill:none;stroke-width:0.1;stroke-linecap:butt;stroke-linejoin:miter;stroke:rgb(0%,0%,0%);stroke-opacity:1;stroke-miterlimit:10;" d="M 509.37788 232.079261 L 509.828411 232.149426 L 509.968741 232.223283 L 510.009363 232.282369 L 510.046292 232.389463 L 510.027827 232.489171 L 509.961355 232.581493 L 509.905962 232.622115 L 509.747168 232.647965 L 509.300329 232.5778 " transform="matrix(1.057778,0,0,1.057778,0,0)"/>
<path style="fill:none;stroke-width:0.1;stroke-linecap:butt;stroke-linejoin:miter;stroke:rgb(0%,0%,0%);stroke-opacity:1;stroke-miterlimit:10;" d="M 509.64746 232.633193 L 509.909655 233.235133 " transform="matrix(1.057778,0,0,1.057778,0,0)"/>
<path style="fill:none;stroke-width:0.1;stroke-linecap:butt;stroke-linejoin:miter;stroke:rgb(0%,0%,0%);stroke-opacity:1;stroke-miterlimit:10;" d="M 510.271557 232.884309 L 510.869805 232.980324 L 510.888269 232.880617 L 510.85134 232.773523 L 510.810718 232.714437 L 510.718396 232.647965 L 510.570681 232.625808 L 510.459894 232.659044 L 510.345415 232.74398 L 510.271557 232.884309 L 510.256786 232.984017 L 510.282636 233.142811 L 510.367572 233.257291 L 510.459894 233.323763 L 510.60761 233.34592 L 510.714703 233.312684 L 510.832876 233.23144 " transform="matrix(1.057778,0,0,1.057778,0,0)"/>
<path style="fill:none;stroke-width:0.1;stroke-linecap:butt;stroke-linejoin:miter;stroke:rgb(0%,0%,0%);stroke-opacity:1;stroke-miterlimit:10;" d="M 511.815183 232.825223 L 511.689625 233.622886 L 511.615767 233.763216 L 511.556681 233.803837 L 511.449587 233.840766 L 511.301872 233.814916 L 511.20955 233.748444 " transform="matrix(1.057778,0,0,1.057778,0,0)"/>
<path style="fill:none;stroke-width:0.1;stroke-linecap:butt;stroke-linejoin:miter;stroke:rgb(0%,0%,0%);stroke-opacity:1;stroke-miterlimit:10;" d="M 511.793025 232.972939 L 511.708089 232.858459 L 511.615767 232.791987 L 511.468052 232.76983 L 511.357265 232.803066 L 511.242786 232.888002 L 511.168928 233.028332 L 511.154157 233.12804 L 511.180007 233.286834 L 511.264943 233.401313 L 511.357265 233.467785 L 511.504981 233.489942 L 511.612074 233.456706 L 511.730246 233.37177 " transform="matrix(1.057778,0,0,1.057778,0,0)"/>
<path style="fill:none;stroke-width:0.1;stroke-linecap:butt;stroke-linejoin:miter;stroke:rgb(0%,0%,0%);stroke-opacity:1;stroke-miterlimit:10;" d="M 512.2214 232.529793 L 512.262022 232.588879 L 512.321108 232.548257 L 512.276793 232.489171 L 512.2214 232.529793 " transform="matrix(1.057778,0,0,1.057778,0,0)"/>
<path style="fill:none;stroke-width:0.1;stroke-linecap:butt;stroke-linejoin:miter;stroke:rgb(0%,0%,0%);stroke-opacity:1;stroke-miterlimit:10;" d="M 512.214014 232.888002 L 512.103228 233.585957 " transform="matrix(1.057778,0,0,1.057778,0,0)"/>
<path style="fill:none;stroke-width:0.1;stroke-linecap:butt;stroke-linejoin:miter;stroke:rgb(0%,0%,0%);stroke-opacity:1;stroke-miterlimit:10;" d="M 512.812261 232.984017 L 512.705168 233.017253 L 512.590688 233.10219 L 512.516831 233.242519 L 512.498366 233.342227 L 512.524216 233.501021 L 512.609153 233.6155 L 512.701475 233.681972 L 512.852883 233.70413 L 512.959977 233.670894 L 513.074456 233.585957 L 513.148314 233.445628 L 513.163085 233.34592 L 513.137235 233.187126 L 513.052299 233.072647 L 512.963669 233.006175 L 512.812261 232.984017 " transform="matrix(1.057778,0,0,1.057778,0,0)"/>
<path style="fill:none;stroke-width:0.1;stroke-linecap:butt;stroke-linejoin:miter;stroke:rgb(0%,0%,0%);stroke-opacity:1;stroke-miterlimit:10;" d="M 513.561917 233.10219 L 513.45113 233.800145 " transform="matrix(1.057778,0,0,1.057778,0,0)"/>
<path style="fill:none;stroke-width:0.1;stroke-linecap:butt;stroke-linejoin:miter;stroke:rgb(0%,0%,0%);stroke-opacity:1;stroke-miterlimit:10;" d="M 513.528681 233.301605 L 513.702246 233.176047 L 513.80934 233.142811 L 513.960748 233.164969 L 514.049377 233.23144 L 514.075227 233.386542 L 513.997677 233.885081 " transform="matrix(1.057778,0,0,1.057778,0,0)"/>
<path style="fill:none;stroke-width:0.1;stroke-linecap:butt;stroke-linejoin:miter;stroke:rgb(0%,0%,0%);stroke-opacity:1;stroke-miterlimit:10;" d="M 515.504373 233.408699 L 515.39728 233.445628 L 515.2828 233.526871 L 515.208943 233.670894 L 515.190478 233.770601 L 515.216328 233.925703 L 515.301265 234.043875 L 515.393587 234.106654 L 515.544995 234.132504 L 515.652089 234.099268 L 515.766568 234.014332 L 515.840426 233.874002 L 515.855197 233.774294 L 515.829347 233.6155 L 515.744411 233.501021 L 515.655782 233.434549 L 515.504373 233.408699 " transform="matrix(1.057778,0,0,1.057778,0,0)"/>
<path style="fill:none;stroke-width:0.1;stroke-linecap:butt;stroke-linejoin:miter;stroke:rgb(0%,0%,0%);stroke-opacity:1;stroke-miterlimit:10;" d="M 516.608545 233.227748 L 516.508838 233.212976 L 516.398051 233.246212 L 516.324193 233.386542 L 516.19125 234.235905 " transform="matrix(1.057778,0,0,1.057778,0,0)"/>
<path style="fill:none;stroke-width:0.1;stroke-linecap:butt;stroke-linejoin:miter;stroke:rgb(0%,0%,0%);stroke-opacity:1;stroke-miterlimit:10;" d="M 516.154321 233.5121 L 516.501452 233.567493 " transform="matrix(1.057778,0,0,1.057778,0,0)"/>
<path style="fill:none;stroke-width:0.1;stroke-linecap:butt;stroke-linejoin:miter;stroke:rgb(0%,0%,0%);stroke-opacity:1;stroke-miterlimit:10;" d="M 517.705332 233.401313 L 517.535459 234.450092 " transform="matrix(1.057778,0,0,1.057778,0,0)"/>
<path style="fill:none;stroke-width:0.1;stroke-linecap:butt;stroke-linejoin:miter;stroke:rgb(0%,0%,0%);stroke-opacity:1;stroke-miterlimit:10;" d="M 517.705332 233.401313 L 518.052463 233.456706 L 518.192792 233.530564 L 518.277729 233.645043 L 518.310965 233.75583 L 518.336815 233.910931 L 518.299886 234.162047 L 518.226028 234.302377 L 518.159557 234.394699 L 518.045077 234.479635 L 517.886283 234.505485 L 517.535459 234.450092 " transform="matrix(1.057778,0,0,1.057778,0,0)"/>
<path style="fill:none;stroke-width:0.1;stroke-linecap:butt;stroke-linejoin:miter;stroke:rgb(0%,0%,0%);stroke-opacity:1;stroke-miterlimit:10;" d="M 518.59901 234.210055 L 519.197257 234.302377 L 519.212028 234.202669 L 519.178792 234.095575 L 519.134478 234.040182 L 519.042156 233.97371 L 518.89444 233.94786 L 518.787347 233.984789 L 518.672867 234.066032 L 518.59901 234.210055 L 518.580545 234.309762 L 518.606395 234.464864 L 518.691332 234.583036 L 518.783654 234.645815 L 518.931369 234.671665 L 519.042156 234.638429 L 519.156635 234.553493 " transform="matrix(1.057778,0,0,1.057778,0,0)"/>
<path style="fill:none;stroke-width:0.1;stroke-linecap:butt;stroke-linejoin:miter;stroke:rgb(0%,0%,0%);stroke-opacity:1;stroke-miterlimit:10;" d="M 519.592395 234.058646 L 519.481609 234.756601 " transform="matrix(1.057778,0,0,1.057778,0,0)"/>
<path style="fill:none;stroke-width:0.1;stroke-linecap:butt;stroke-linejoin:miter;stroke:rgb(0%,0%,0%);stroke-opacity:1;stroke-miterlimit:10;" d="M 519.559159 234.258062 L 519.732725 234.132504 L 519.839818 234.099268 L 519.991227 234.125118 L 520.083549 234.187897 L 520.109399 234.346691 L 520.028156 234.845231 " transform="matrix(1.057778,0,0,1.057778,0,0)"/>
<path style="fill:none;stroke-width:0.1;stroke-linecap:butt;stroke-linejoin:miter;stroke:rgb(0%,0%,0%);stroke-opacity:1;stroke-miterlimit:10;" d="M 520.537773 234.210055 L 520.426987 234.90801 " transform="matrix(1.057778,0,0,1.057778,0,0)"/>
<path style="fill:none;stroke-width:0.1;stroke-linecap:butt;stroke-linejoin:miter;stroke:rgb(0%,0%,0%);stroke-opacity:1;stroke-miterlimit:10;" d="M 520.50823 234.40947 L 520.681796 234.283912 L 520.78889 234.250676 L 520.936605 234.272834 L 521.028927 234.339306 L 521.054777 234.4981 L 520.977227 234.996639 " transform="matrix(1.057778,0,0,1.057778,0,0)"/>
<path style="fill:none;stroke-width:0.1;stroke-linecap:butt;stroke-linejoin:miter;stroke:rgb(0%,0%,0%);stroke-opacity:1;stroke-miterlimit:10;" d="M 521.054777 234.4981 L 521.228343 234.372541 L 521.335436 234.335613 L 521.486844 234.361463 L 521.579167 234.427935 L 521.605017 234.583036 L 521.523773 235.081575 " transform="matrix(1.057778,0,0,1.057778,0,0)"/>
<path style="fill:none;stroke-width:0.1;stroke-linecap:butt;stroke-linejoin:miter;stroke:rgb(0%,0%,0%);stroke-opacity:1;stroke-miterlimit:10;" d="M 522.583631 234.535028 L 522.472844 235.232983 " transform="matrix(1.057778,0,0,1.057778,0,0)"/>
<path style="fill:none;stroke-width:0.1;stroke-linecap:butt;stroke-linejoin:miter;stroke:rgb(0%,0%,0%);stroke-opacity:1;stroke-miterlimit:10;" d="M 522.557781 234.686437 L 522.476537 234.568264 L 522.384215 234.505485 L 522.232807 234.479635 L 522.125713 234.512871 L 522.011234 234.597807 L 521.937376 234.738137 L 521.922605 234.837845 L 521.948455 234.996639 L 522.033391 235.111118 L 522.12202 235.17759 L 522.273429 235.20344 L 522.380522 235.166511 L 522.495002 235.085268 " transform="matrix(1.057778,0,0,1.057778,0,0)"/>
<path style="fill:none;stroke-width:0.1;stroke-linecap:butt;stroke-linejoin:miter;stroke:rgb(0%,0%,0%);stroke-opacity:1;stroke-miterlimit:10;" d="M 522.982462 234.597807 L 522.871676 235.295762 " transform="matrix(1.057778,0,0,1.057778,0,0)"/>
<path style="fill:none;stroke-width:0.1;stroke-linecap:butt;stroke-linejoin:miter;stroke:rgb(0%,0%,0%);stroke-opacity:1;stroke-miterlimit:10;" d="M 522.934455 234.896931 L 523.008312 234.756601 L 523.122792 234.671665 L 523.229885 234.638429 L 523.381294 234.660586 " transform="matrix(1.057778,0,0,1.057778,0,0)"/>
<path style="fill:none;stroke-width:0.1;stroke-linecap:butt;stroke-linejoin:miter;stroke:rgb(0%,0%,0%);stroke-opacity:1;stroke-miterlimit:10;" d="M 523.68411 234.354077 L 523.51793 235.399163 " transform="matrix(1.057778,0,0,1.057778,0,0)"/>
<path style="fill:none;stroke-width:0.1;stroke-linecap:butt;stroke-linejoin:miter;stroke:rgb(0%,0%,0%);stroke-opacity:1;stroke-miterlimit:10;" d="M 524.127256 234.782452 L 523.551166 235.199747 " transform="matrix(1.057778,0,0,1.057778,0,0)"/>
<path style="fill:none;stroke-width:0.1;stroke-linecap:butt;stroke-linejoin:miter;stroke:rgb(0%,0%,0%);stroke-opacity:1;stroke-miterlimit:10;" d="M 523.783818 235.033568 L 524.06817 235.487792 " transform="matrix(1.057778,0,0,1.057778,0,0)"/>
<path style="fill:none;stroke-width:0.1;stroke-linecap:butt;stroke-linejoin:miter;stroke:rgb(0%,0%,0%);stroke-opacity:1;stroke-miterlimit:10;" d="M 525.331136 234.616272 L 525.164956 235.661358 " transform="matrix(1.057778,0,0,1.057778,0,0)"/>
<path style="fill:none;stroke-width:0.1;stroke-linecap:butt;stroke-linejoin:miter;stroke:rgb(0%,0%,0%);stroke-opacity:1;stroke-miterlimit:10;" d="M 525.331136 234.616272 L 525.678267 234.671665 L 525.82229 234.74183 L 525.903533 234.860002 L 525.940462 234.967096 L 525.966312 235.12589 L 525.92569 235.373313 L 525.851833 235.513642 L 525.785361 235.605965 L 525.670881 235.690901 L 525.512087 235.716751 L 525.164956 235.661358 " transform="matrix(1.057778,0,0,1.057778,0,0)"/>
<path style="fill:none;stroke-width:0.1;stroke-linecap:butt;stroke-linejoin:miter;stroke:rgb(0%,0%,0%);stroke-opacity:1;stroke-miterlimit:10;" d="M 526.224814 235.42132 L 526.823061 235.517335 L 526.837833 235.417628 L 526.804597 235.310534 L 526.763975 235.251448 L 526.671653 235.184976 L 526.520245 235.162819 L 526.413151 235.196054 L 526.298672 235.280991 L 526.224814 235.42132 L 526.210042 235.521028 L 526.235893 235.679822 L 526.317136 235.794302 L 526.409458 235.860774 L 526.560866 235.882931 L 526.66796 235.849695 L 526.782439 235.764759 " transform="matrix(1.057778,0,0,1.057778,0,0)"/>
<path style="fill:none;stroke-width:0.1;stroke-linecap:butt;stroke-linejoin:miter;stroke:rgb(0%,0%,0%);stroke-opacity:1;stroke-miterlimit:10;" d="M 527.2182 235.273605 L 527.107413 235.97156 " transform="matrix(1.057778,0,0,1.057778,0,0)"/>
<path style="fill:none;stroke-width:0.1;stroke-linecap:butt;stroke-linejoin:miter;stroke:rgb(0%,0%,0%);stroke-opacity:1;stroke-miterlimit:10;" d="M 527.188657 235.473021 L 527.362222 235.347463 L 527.469316 235.310534 L 527.617031 235.336384 L 527.709353 235.402856 L 527.735203 235.557957 L 527.657653 236.056496 " transform="matrix(1.057778,0,0,1.057778,0,0)"/>
<path style="fill:none;stroke-width:0.1;stroke-linecap:butt;stroke-linejoin:miter;stroke:rgb(0%,0%,0%);stroke-opacity:1;stroke-miterlimit:10;" d="M 528.167271 235.42132 L 528.056484 236.119275 " transform="matrix(1.057778,0,0,1.057778,0,0)"/>
<path style="fill:none;stroke-width:0.1;stroke-linecap:butt;stroke-linejoin:miter;stroke:rgb(0%,0%,0%);stroke-opacity:1;stroke-miterlimit:10;" d="M 528.134035 235.620736 L 528.3076 235.495178 L 528.414694 235.461942 L 528.566102 235.487792 L 528.658424 235.550571 L 528.684274 235.709365 L 528.603031 236.207905 " transform="matrix(1.057778,0,0,1.057778,0,0)"/>
<path style="fill:none;stroke-width:0.1;stroke-linecap:butt;stroke-linejoin:miter;stroke:rgb(0%,0%,0%);stroke-opacity:1;stroke-miterlimit:10;" d="M 528.684274 235.709365 L 528.85784 235.583807 L 528.964933 235.550571 L 529.112649 235.572729 L 529.204971 235.639201 L 529.230821 235.797994 L 529.153271 236.296534 " transform="matrix(1.057778,0,0,1.057778,0,0)"/>
<path style="fill:none;stroke-width:0.1;stroke-linecap:butt;stroke-linejoin:miter;stroke:rgb(0%,0%,0%);stroke-opacity:1;stroke-miterlimit:10;" d="M 530.209435 235.746294 L 530.098649 236.444249 " transform="matrix(1.057778,0,0,1.057778,0,0)"/>
<path style="fill:none;stroke-width:0.1;stroke-linecap:butt;stroke-linejoin:miter;stroke:rgb(0%,0%,0%);stroke-opacity:1;stroke-miterlimit:10;" d="M 530.187278 235.897702 L 530.102342 235.783223 L 530.01002 235.716751 L 529.862304 235.690901 L 529.755211 235.72783 L 529.637038 235.809073 L 529.563181 235.953096 L 529.548409 236.052803 L 529.574259 236.207905 L 529.659196 236.326077 L 529.751518 236.388856 L 529.899233 236.414706 L 530.006327 236.38147 L 530.124499 236.296534 " transform="matrix(1.057778,0,0,1.057778,0,0)"/>
<path style="fill:none;stroke-width:0.1;stroke-linecap:butt;stroke-linejoin:miter;stroke:rgb(0%,0%,0%);stroke-opacity:1;stroke-miterlimit:10;" d="M 530.608267 235.812766 L 530.49748 236.510721 " transform="matrix(1.057778,0,0,1.057778,0,0)"/>
<path style="fill:none;stroke-width:0.1;stroke-linecap:butt;stroke-linejoin:miter;stroke:rgb(0%,0%,0%);stroke-opacity:1;stroke-miterlimit:10;" d="M 530.560259 236.11189 L 530.634117 235.967867 L 530.752289 235.886624 L 530.859383 235.849695 L 531.007098 235.875545 " transform="matrix(1.057778,0,0,1.057778,0,0)"/>
<path style="fill:none;stroke-width:0.1;stroke-linecap:butt;stroke-linejoin:miter;stroke:rgb(0%,0%,0%);stroke-opacity:1;stroke-miterlimit:10;" d="M 531.313607 235.565343 L 531.147428 236.610429 " transform="matrix(1.057778,0,0,1.057778,0,0)"/>
<path style="fill:none;stroke-width:0.1;stroke-linecap:butt;stroke-linejoin:miter;stroke:rgb(0%,0%,0%);stroke-opacity:1;stroke-miterlimit:10;" d="M 531.756753 235.993717 L 531.176971 236.411013 " transform="matrix(1.057778,0,0,1.057778,0,0)"/>
<path style="fill:none;stroke-width:0.1;stroke-linecap:butt;stroke-linejoin:miter;stroke:rgb(0%,0%,0%);stroke-opacity:1;stroke-miterlimit:10;" d="M 531.409622 236.244833 L 531.693974 236.699058 " transform="matrix(1.057778,0,0,1.057778,0,0)"/>
</g>
</svg>
